<?xml version="1.0" standalone="no"?>
<!DOCTYPE svg PUBLIC "-//W3C//DTD SVG 20010904//EN"
 "http://www.w3.org/TR/2001/REC-SVG-20010904/DTD/svg10.dtd">
<svg version="1.0" xmlns="http://www.w3.org/2000/svg"
 width="1458.000000pt" height="1167.000000pt" viewBox="0 0 1458.000000 1167.000000"
 preserveAspectRatio="xMidYMid meet">
<metadata>
Created by potrace 1.13, written by Peter Selinger 2001-2015
</metadata>
<g transform="translate(0.000000,1167.000000) scale(0.100000,-0.100000)"
fill="#000000" stroke="none">
<path d="M11944 10125 c-136 -29 -261 -95 -365 -193 -66 -61 -83 -89 -113
-189 -12 -38 8 -25 29 19 32 66 80 122 133 157 27 17 52 31 55 31 4 0 -19 -31
-51 -69 -140 -167 -169 -299 -107 -484 23 -68 71 -152 103 -179 18 -16 159
-81 202 -93 16 -4 6 6 -25 26 -54 36 -145 124 -145 140 0 6 21 -4 46 -22 75
-51 202 -94 369 -125 37 -6 38 -8 15 -14 -14 -5 -43 -8 -64 -9 -66 -2 -27 -23
51 -28 124 -9 252 35 345 117 83 73 148 244 148 390 0 45 -20 169 -35 215 -3
11 3 4 13 -15 23 -42 48 -148 58 -247 3 -40 10 -73 14 -73 10 0 20 79 20 159
-1 243 -142 426 -375 486 -73 18 -236 19 -321 0z"/>
<path d="M2163 10108 c-13 -6 -23 -14 -23 -17 0 -4 39 -20 86 -36 102 -35 89
-43 -35 -21 -103 17 -161 12 -161 -14 0 -12 11 -20 33 -24 17 -4 43 -16 57
-27 l25 -21 -25 7 c-14 3 -33 9 -42 12 -29 9 -21 -16 20 -66 66 -79 210 -340
257 -463 10 -27 22 -48 27 -48 5 0 7 -4 4 -8 -3 -5 15 -69 38 -143 59 -182
113 -414 124 -532 5 -53 12 -100 15 -103 14 -14 104 22 172 67 39 26 111 89
159 139 81 84 93 102 153 228 132 281 177 372 180 368 6 -6 -163 -421 -194
-478 -56 -102 -199 -246 -314 -313 l-44 -27 120 6 c219 10 366 66 473 181 34
36 62 70 62 76 0 6 5 7 12 3 7 -5 8 -3 4 5 -5 7 -2 20 6 29 8 9 21 33 29 52
67 172 188 264 291 223 77 -31 138 -151 183 -362 59 -273 83 -339 152 -407 56
-57 113 -77 213 -77 73 0 93 4 143 28 127 63 227 200 332 455 15 36 34 81 44
100 10 19 28 69 40 110 47 154 90 213 181 245 55 19 82 11 126 -37 148 -165
171 -518 80 -1238 -38 -305 -39 -320 -22 -320 9 0 19 15 26 38 21 77 69 332
85 457 23 185 25 195 34 195 7 0 45 -117 71 -217 6 -23 22 -118 35 -212 26
-173 60 -313 96 -386 l19 -40 -4 229 c-5 237 -1 266 34 266 29 0 39 -28 66
-193 14 -84 41 -249 60 -367 52 -316 111 -475 236 -637 39 -52 218 -226 225
-220 1 2 -6 55 -17 118 -17 99 -20 161 -20 465 0 292 5 423 30 770 46 641 51
697 58 724 9 37 19 -84 22 -270 1 -85 5 -166 9 -180 6 -21 10 -16 26 40 26 92
27 527 1 705 -48 337 -140 549 -311 720 -71 72 -109 101 -180 138 -49 26 -76
44 -60 41 50 -11 86 -29 168 -82 71 -47 131 -71 144 -59 6 7 -63 70 -126 116
-72 52 -198 109 -281 127 -58 13 -107 15 -220 10 -190 -8 -307 -33 -430 -91
l-96 -47 -91 46 c-330 166 -561 146 -1013 -86 -159 -81 -170 -77 -23 9 103 60
108 78 21 68 -207 -24 -353 -130 -464 -339 -21 -38 -35 -55 -38 -46 -3 8 -19
62 -37 120 -41 137 -63 173 -190 309 -108 114 -131 130 -236 165 -88 29 -93
16 -14 -38 39 -27 71 -51 71 -53 0 -2 -18 6 -39 17 -22 11 -136 45 -253 75
-220 57 -322 68 -375 43z m3689 -435 c31 -14 64 -33 73 -43 16 -18 15 -18 -32
-4 -110 34 -336 11 -455 -46 -47 -22 -49 -11 -5 22 132 102 288 128 419 71z
m-2609 -238 c-3 -9 -8 -14 -10 -11 -3 3 -2 9 2 15 9 16 15 13 8 -4z m926 -774
c74 -69 9 -186 -92 -167 -62 12 -96 74 -73 130 30 71 110 89 165 37z"/>
<path d="M4108 8641 c21 -13 10 -46 -16 -49 -21 -3 -29 11 -23 42 1 5 -5 3
-14 -4 -25 -21 -16 -72 17 -88 43 -20 87 9 88 61 0 12 -39 47 -52 47 -10 0
-10 -3 0 -9z"/>
<path d="M5725 10046 l-230 -53 59 -7 c89 -10 199 -51 291 -107 78 -48 84 -50
121 -40 76 20 215 41 416 61 111 12 204 22 205 24 2 2 -112 26 -252 54 -229
46 -263 55 -314 87 -32 19 -60 34 -62 34 -2 -1 -107 -25 -234 -53z"/>
<path d="M9225 9269 c-163 -11 -227 -26 -297 -69 -100 -60 -91 -74 27 -40 38
11 90 20 115 20 l45 -1 -65 -27 c-36 -16 -92 -47 -125 -69 -56 -38 -166 -141
-173 -163 -2 -5 18 -3 45 5 72 22 168 19 220 -6 51 -25 94 -83 116 -156 24
-81 40 -267 29 -348 l-9 -70 -2 77 c-2 136 -48 320 -91 362 -25 25 -26 11 -5
-58 20 -66 20 -388 0 -591 -44 -449 -66 -884 -52 -1030 18 -195 50 -435 64
-490 8 -33 28 -95 45 -138 34 -90 124 -231 140 -221 6 4 8 3 5 -2 -14 -24 144
-137 164 -117 6 6 4 14 -6 23 -10 8 -15 9 -15 1 0 -6 -4 -11 -10 -11 -5 0 -7
6 -4 14 7 17 -32 59 -46 51 -5 -3 -7 1 -4 9 3 8 -18 46 -50 90 -57 77 -63 90
-46 101 6 3 7 -1 4 -10 -7 -18 113 -138 129 -128 6 3 7 1 3 -5 -8 -13 28 -35
39 -24 5 4 5 2 1 -5 -8 -14 27 -36 39 -25 5 4 5 2 2 -4 -3 -6 7 -18 22 -27 27
-16 29 -16 35 0 6 15 8 15 17 3 8 -13 10 -13 19 0 5 8 10 11 10 6 0 -6 5 -5
12 2 7 7 34 12 60 12 26 0 48 4 48 8 0 8 115 24 262 38 37 3 66 10 63 14 -3 4
13 8 34 8 33 1 39 -3 38 -18 -1 -10 -5 -16 -9 -14 -5 3 -6 9 -3 14 4 7 -24 6
-32 0 -5 -4 -22 -7 -45 -10 -22 -2 -22 -2 2 -9 14 -5 33 -4 43 1 43 22 24 -4
-35 -47 -34 -26 -65 -51 -66 -56 -2 -5 -8 -7 -13 -3 -5 3 -9 0 -9 -5 0 -6 -3
-10 -7 -9 -13 4 -73 -24 -73 -34 0 -5 -4 -7 -9 -4 -5 3 -24 0 -42 -8 -19 -7
-43 -16 -53 -20 -10 -3 -17 -9 -14 -12 9 -8 98 17 98 28 0 5 5 6 10 3 6 -4 17
-1 25 5 8 7 15 9 15 4 0 -5 5 -1 11 9 5 9 15 17 22 17 7 0 6 -4 -3 -11 -11 -8
-9 -9 10 -3 14 4 28 12 32 18 4 6 8 8 8 3 0 -4 14 0 31 8 17 9 29 19 26 22 -3
2 -15 -1 -27 -7 -12 -6 -24 -9 -27 -7 -6 7 39 32 50 29 5 -1 6 2 3 7 -6 9 19
24 44 26 9 0 14 8 12 18 -2 9 1 17 5 16 4 -1 10 0 13 1 14 5 40 8 40 4 0 -15
-56 -54 -70 -49 -12 4 -19 -1 -23 -15 -3 -14 -1 -18 6 -13 11 7 16 9 35 12 14
2 163 150 210 207 40 50 52 72 33 59 -5 -3 -12 -1 -15 4 -4 5 2 8 11 6 10 -2
21 -4 25 -4 3 -1 18 -21 32 -46 15 -25 31 -45 37 -45 6 0 8 -4 5 -9 -3 -5 1
-12 10 -15 8 -3 13 -10 10 -14 -7 -12 123 -153 135 -146 5 3 9 1 9 -5 0 -15
118 -93 130 -86 5 3 6 13 3 23 -6 15 -5 15 14 -1 14 -12 23 -15 28 -8 3 6 -1
11 -9 11 -8 0 -20 10 -27 22 -9 17 -9 20 2 16 10 -4 15 3 15 22 1 23 -1 26
-11 17 -8 -7 -9 -14 -3 -18 5 -3 2 -9 -7 -12 -9 -4 -15 -15 -13 -24 2 -13 -5
-19 -22 -21 -25 -4 -25 -3 -5 13 20 16 20 16 -2 5 -19 -9 -23 -8 -23 6 0 10 3
14 6 11 9 -8 44 11 44 23 0 6 -5 10 -11 10 -5 0 -7 -6 -3 -12 5 -10 4 -10 -6
-1 -11 10 -11 15 0 28 9 11 15 13 20 4 6 -8 9 -8 14 0 4 6 2 11 -3 11 -6 0
-11 4 -11 10 0 5 6 7 14 4 8 -3 16 -1 19 4 3 4 -9 8 -28 8 -18 0 -31 -5 -27
-10 3 -5 -3 -7 -14 -3 -18 7 -18 7 0 -8 16 -12 17 -15 4 -15 -8 0 -21 7 -28
15 -7 8 -20 15 -29 15 -11 0 -6 -10 17 -31 19 -17 31 -33 28 -36 -3 -4 -6 -3
-6 2 0 4 -7 2 -15 -5 -12 -10 -18 -9 -31 5 -15 14 -15 18 -3 27 10 7 8 8 -9 3
-32 -9 -57 12 -40 33 9 10 9 13 1 9 -17 -10 -66 11 -57 25 4 6 3 8 -3 5 -6 -4
-13 0 -16 7 -3 8 -1 17 6 20 7 2 4 5 -6 5 -25 1 -40 44 -18 52 19 8 43 -9 35
-23 -4 -6 -9 -6 -14 2 -5 9 -9 8 -13 -2 -7 -19 23 -19 41 -1 8 8 9 13 3 13 -6
0 -11 3 -11 8 0 9 95 32 133 32 16 0 26 -4 22 -9 -14 -23 20 -22 40 1 13 15
36 27 61 31 96 15 317 56 321 61 3 3 16 1 29 -4 27 -11 28 -8 13 23 -9 20 -9
20 4 5 8 -10 17 -15 20 -11 4 3 9 -2 13 -11 6 -15 7 -15 21 1 14 17 14 17 9 1
-3 -12 0 -18 10 -18 12 0 10 8 -7 42 -12 24 -29 49 -38 56 -12 10 -12 11 -1 6
13 -7 13 -5 -1 16 -8 14 -28 61 -44 105 -16 44 -31 82 -34 85 -3 3 -6 11 -7
18 -3 37 -5 43 -11 39 -5 -3 -8 9 -9 26 -1 18 -12 86 -26 152 -53 248 -63 355
-62 695 0 236 4 353 18 465 34 292 86 557 161 814 33 115 39 169 15 145 -5 -5
-34 -74 -65 -154 -30 -80 -52 -127 -49 -105 10 61 73 265 95 308 19 38 25 67
12 67 -3 0 -27 -13 -52 -29 -131 -84 -258 -116 -466 -115 -77 1 -158 5 -180
11 -36 9 -27 11 80 16 169 10 228 22 325 69 99 48 88 59 -26 28 -150 -41 -421
-38 -637 7 -42 9 -79 14 -82 11 -2 -2 11 -47 31 -98 85 -229 124 -370 144
-522 25 -186 25 -187 -4 -108 -34 95 -113 263 -119 253 -2 -4 13 -77 35 -162
62 -247 108 -652 108 -952 0 -160 -10 -289 -41 -509 -34 -241 -57 -309 -128
-373 -83 -75 -182 -55 -234 49 -57 111 -57 471 -2 949 13 114 14 102 9 -255
-2 -206 -7 -410 -10 -452 -7 -98 10 -105 25 -10 41 257 48 446 32 902 -20 598
-34 736 -91 912 -69 216 -198 353 -385 411 -73 22 -108 25 -230 16z m1055
-2844 c0 -7 -30 -13 -34 -7 -3 4 4 9 15 9 10 1 19 0 19 -2z m110 -19 c0 -2 -7
-7 -16 -10 -8 -3 -12 -2 -9 4 6 10 25 14 25 6z m-1036 -37 c-3 -5 -10 -7 -15
-3 -5 3 -7 10 -3 15 3 5 10 7 15 3 5 -3 7 -10 3 -15z m-50 3 c3 -5 -1 -9 -9
-9 -8 0 -12 4 -9 9 3 4 7 8 9 8 2 0 6 -4 9 -8z m861 -92 c-10 -12 -25 -18 -33
-15 -10 4 -12 0 -8 -11 5 -14 4 -15 -8 -5 -11 9 -15 9 -19 -1 -2 -7 -4 -1 -3
13 1 21 6 25 28 24 15 -1 33 2 40 6 21 14 22 10 3 -11z m-790 -99 c3 -5 2 -12
-3 -15 -5 -3 -9 1 -9 9 0 17 3 19 12 6z"/>
<path d="M4934 9191 c-55 -33 -85 -86 -136 -238 -27 -80 -47 -150 -46 -155 2
-4 30 29 63 74 80 111 201 237 248 258 l38 17 -31 32 c-38 37 -88 42 -136 12z"/>
<path d="M7615 9204 c-176 -27 -276 -60 -382 -127 -41 -26 -57 -57 -30 -57 7
0 50 18 96 40 45 22 90 40 99 40 8 0 -26 -20 -77 -45 -110 -53 -205 -113 -320
-202 -45 -35 -85 -62 -88 -60 -2 3 10 21 27 41 20 22 30 42 26 52 -5 13 -9 13
-34 -5 -61 -43 -151 -139 -196 -208 -110 -170 -153 -397 -110 -584 28 -125
118 -226 236 -265 75 -25 85 -4 16 35 -51 29 -111 81 -93 81 4 0 30 -13 56
-30 99 -61 144 -70 245 -51 131 25 242 98 300 196 36 63 87 316 65 330 -9 5
-48 -106 -52 -146 -1 -8 -5 15 -9 51 -15 143 -70 247 -160 298 l-51 29 48 21
c70 30 155 49 265 61 54 6 100 11 103 11 3 0 4 4 1 9 -3 4 -32 14 -65 22 -33
7 -58 16 -55 21 3 4 35 8 72 8 126 0 254 -84 307 -202 50 -112 44 -242 -17
-362 -28 -54 -129 -159 -203 -209 -32 -22 -98 -60 -145 -85 l-85 -44 55 5 55
5 -71 -34 c-39 -18 -158 -63 -265 -99 -131 -45 -219 -81 -273 -113 -131 -78
-264 -214 -347 -353 -51 -87 -100 -210 -104 -264 -2 -27 -5 -50 -6 -50 -2 0
-2 -2 -19 -109 -9 -60 -8 -78 11 -147 26 -96 41 -111 39 -38 -3 89 0 129 8
129 4 0 8 -26 9 -57 2 -94 3 -95 20 -89 13 5 14 4 4 -8 -10 -12 -10 -23 -1
-53 7 -21 16 -42 21 -47 5 -6 9 -18 9 -27 0 -10 6 -24 13 -31 7 -7 14 -17 14
-23 2 -20 48 -85 60 -85 7 0 10 -6 7 -14 -6 -17 142 -169 159 -163 6 2 13 9
15 17 3 7 0 10 -6 6 -7 -4 -22 -2 -34 5 -21 12 -22 12 -2 28 10 9 20 23 22 31
2 11 -1 11 -11 -2 -8 -10 -17 -15 -20 -11 -4 3 -17 7 -30 8 -12 2 -21 8 -19
15 2 7 -3 10 -12 7 -8 -3 -17 1 -20 9 -7 18 22 15 42 -4 8 -7 17 -10 22 -7 5
3 11 -1 13 -7 4 -9 6 -10 6 -1 1 6 11 10 24 8 12 -2 73 -9 136 -16 77 -9 107
-15 95 -21 -12 -5 0 -6 31 -4 28 3 70 0 95 -5 25 -6 82 -16 127 -22 45 -7 85
-15 89 -19 4 -5 25 -8 46 -8 32 0 38 -3 38 -21 0 -12 -8 -23 -19 -26 -13 -3
-18 -10 -13 -21 5 -15 4 -16 -14 -2 -18 14 -18 14 -5 -2 17 -22 31 -23 31 -3
0 8 9 20 19 27 10 6 17 16 15 22 -3 7 12 11 36 11 35 0 38 -2 23 -12 -9 -7
-14 -16 -10 -19 7 -7 98 43 109 60 4 6 8 7 8 3 0 -11 119 73 134 95 7 10 15
16 17 13 3 -2 5 4 6 15 2 18 0 18 -32 3 -19 -9 -32 -20 -29 -25 3 -5 0 -8 -7
-7 -21 4 -59 -11 -59 -23 0 -6 -3 -9 -6 -6 -8 9 19 48 33 48 7 0 18 9 25 20 7
11 18 20 24 20 16 0 95 70 104 94 9 21 9 21 16 -1 3 -13 11 -20 17 -16 6 3 7
1 3 -5 -9 -15 24 -72 42 -72 7 0 10 -5 7 -10 -7 -12 71 -110 88 -110 6 0 20 8
31 18 21 17 21 17 2 -6 -11 -12 -17 -24 -15 -25 2 -2 55 -23 118 -46 94 -35
116 -39 129 -29 11 9 14 9 9 1 -6 -9 3 -10 30 -6 21 3 39 9 41 13 1 3 18 4 38
2 26 -3 39 1 50 14 9 11 13 13 9 7 -4 -8 0 -13 9 -13 22 0 66 22 61 30 -2 3 6
6 18 6 15 -1 22 4 21 17 -1 12 2 15 10 8 12 -10 76 23 76 40 0 5 6 9 13 9 22
0 47 34 42 58 -2 13 0 20 6 17 5 -4 7 -11 4 -16 -14 -22 14 -6 45 26 27 28 31
37 21 49 -8 10 -9 16 -1 21 9 6 14 -1 11 -17 0 -5 3 -8 9 -8 5 0 10 4 10 9 0
5 3 16 6 24 4 11 -2 17 -23 19 -25 3 -22 5 22 19 75 22 67 43 -17 47 -72 3
-96 22 -29 22 25 0 41 5 45 15 4 12 -3 15 -35 15 -24 0 -62 12 -98 30 -32 16
-62 26 -66 22 -4 -4 -5 -2 -4 3 2 6 -11 25 -29 44 -40 44 -57 93 -87 264 -24
131 -25 146 -15 305 5 92 16 214 25 272 16 116 31 348 22 339 -4 -3 -18 -55
-32 -115 -14 -60 -23 -89 -20 -64 34 323 32 715 -4 883 -72 329 -216 513 -466
593 -67 22 -102 27 -220 29 -77 2 -153 1 -170 -1z m235 -1474 c0 -6 -9 -50
-20 -99 -49 -223 -92 -507 -94 -621 0 -63 3 -128 7 -144 7 -26 10 -27 23 -14
8 8 18 39 22 69 7 53 7 53 12 -36 4 -72 2 -92 -10 -102 -8 -6 -15 -17 -15 -25
0 -7 -11 -13 -25 -13 -14 -1 -55 -15 -92 -33 -97 -46 -188 -60 -264 -40 -32 8
-68 19 -78 23 -15 7 -18 5 -12 -6 5 -8 2 -8 -6 2 -7 9 -31 25 -53 36 -22 12
-49 31 -60 44 l-20 23 28 -17 c50 -32 120 -67 132 -67 31 0 22 31 -18 62 -23
18 -43 36 -45 40 -2 4 -10 4 -19 1 -10 -4 -14 -2 -10 4 4 6 0 17 -9 24 -8 7
-22 26 -31 43 -21 40 -13 171 14 242 43 111 89 157 337 338 63 46 112 86 109
89 -3 3 -39 -10 -81 -29 -41 -19 -77 -32 -79 -30 -2 2 70 54 161 115 91 61
168 115 171 121 8 13 25 13 25 0z m-48 -712 c-8 -8 -9 -4 -5 13 4 13 8 18 11
10 2 -7 -1 -18 -6 -23z m34 -278 c0 -12 -4 -16 -9 -11 -5 5 -6 14 -3 20 10 15
12 14 12 -9z m-1295 -67 c13 -16 12 -17 -3 -4 -10 7 -18 15 -18 17 0 8 8 3 21
-13z m806 -20 c-14 -14 -19 -15 -29 -4 -11 10 -10 11 3 6 10 -4 20 -2 24 4 3
6 9 11 13 11 3 0 -1 -8 -11 -17z m1383 -65 c0 -4 -4 -8 -9 -8 -6 0 -12 4 -15
8 -3 5 1 9 9 9 8 0 15 -4 15 -9z m93 -63 c-3 -9 -8 -14 -10 -11 -3 3 -2 9 2
15 9 16 15 13 8 -4z m-33 1 c0 -2 -7 -7 -16 -10 -8 -3 -12 -2 -9 4 6 10 25 14
25 6z m-40 -52 c0 -8 -19 -13 -24 -6 -3 5 1 9 9 9 8 0 15 -2 15 -3z m4 -32 c3
-5 -1 -9 -9 -9 -8 0 -12 4 -9 9 3 4 7 8 9 8 2 0 6 -4 9 -8z m-981 -17 c-3 -9
-8 -14 -10 -11 -3 3 -2 9 2 15 9 16 15 13 8 -4z m-1100 -60 c4 -8 3 -16 -1
-19 -4 -3 -9 4 -9 15 -2 23 3 25 10 4z m1285 -6 c9 -12 9 -16 -1 -16 -7 0 -14
9 -14 20 -1 11 -1 18 0 16 2 -2 8 -11 15 -20z m716 3 c3 -5 -1 -9 -9 -9 -8 0
-12 4 -9 9 3 4 7 8 9 8 2 0 6 -4 9 -8z m-1047 -64 c2 -17 0 -19 -7 -8 -5 8 -6
18 -4 22 8 12 10 10 11 -14z m377 4 c3 -5 -1 -9 -9 -9 -8 0 -12 4 -9 9 3 4 7
8 9 8 2 0 6 -4 9 -8z m582 -12 c0 -12 -4 -16 -9 -11 -5 5 -6 14 -3 20 10 15
12 14 12 -9z m-1826 -20 c12 -7 10 -9 -8 -7 -12 0 -22 5 -22 9 0 11 12 10 30
-2z m1455 -78 c-3 -3 -11 0 -18 7 -9 10 -8 11 6 5 10 -3 15 -9 12 -12z m60 8
c3 -6 -1 -7 -9 -4 -18 7 -21 14 -7 14 6 0 13 -4 16 -10z"/>
<path d="M2401 9134 c-1 -5 12 -116 29 -245 42 -340 60 -590 60 -858 0 -308
-23 -548 -81 -836 -11 -54 -18 -107 -16 -117 3 -10 1 -16 -3 -13 -5 3 -12 -11
-15 -32 -7 -39 -37 -153 -55 -210 -6 -17 -10 -35 -9 -40 1 -4 -6 -26 -16 -48
-9 -22 -18 -50 -19 -62 0 -13 -4 -23 -8 -23 -5 0 -8 -8 -8 -17 0 -10 -11 -41
-24 -70 -13 -28 -22 -54 -18 -57 3 -3 -1 -6 -8 -6 -7 0 -11 -2 -8 -5 3 -3 13
-2 22 1 14 5 15 9 4 15 -9 6 -9 9 -1 9 19 0 26 -20 8 -26 -10 -4 -14 -13 -10
-23 5 -13 4 -14 -6 -3 -7 6 -18 12 -24 12 -5 0 -3 -5 5 -10 12 -8 12 -10 -5
-11 -11 0 -14 -3 -7 -6 18 -7 15 -21 -5 -19 -12 1 -18 -7 -19 -21 -1 -13 3
-23 7 -23 5 0 9 5 9 11 0 5 5 7 12 3 6 -4 8 -3 5 3 -4 6 0 13 8 17 8 3 12 12
9 21 -4 9 -2 15 5 13 6 -2 19 10 29 25 16 27 16 29 -2 43 -11 8 -14 14 -8 14
7 0 14 0 17 0 3 0 5 -3 4 -6 -1 -8 22 -24 34 -24 5 0 5 5 2 10 -3 6 1 10 9 10
8 0 18 -5 22 -12 4 -6 3 -8 -3 -5 -6 4 -14 0 -17 -9 -5 -13 -9 -14 -20 -5 -10
9 -15 7 -19 -6 -2 -10 -8 -26 -12 -36 -6 -13 -4 -16 9 -11 10 4 15 13 12 20
-3 8 -2 13 2 12 4 0 25 7 46 16 24 11 50 15 65 11 14 -3 63 -12 108 -19 68
-11 86 -18 106 -41 14 -17 29 -25 36 -21 6 4 9 11 7 14 -3 6 211 -12 234 -18
3 -1 -5 -5 -18 -9 -13 -3 28 -6 90 -6 189 0 448 -17 448 -29 0 -8 2 -8 8 0 13
20 40 23 54 7 11 -14 11 -16 -3 -11 -18 7 -21 -22 -4 -34 6 -5 5 -8 -2 -8 -18
0 -16 -27 2 -34 8 -3 15 -1 15 4 0 6 -6 10 -12 11 -7 0 0 6 16 13 28 13 28 13
6 19 -20 5 -21 8 -10 21 8 11 9 20 3 29 -6 6 -16 36 -23 65 -6 28 -15 52 -18
52 -4 0 -8 10 -8 23 -1 12 -6 45 -13 72 -6 28 -14 68 -17 90 -2 22 -9 65 -14
95 -25 148 -35 338 -34 680 0 382 0 389 74 1160 24 248 24 250 6 250 -18 0
-15 11 -72 -240 -25 -113 -48 -207 -51 -210 -16 -14 11 296 33 385 6 25 -1 19
-39 -31 -52 -71 -87 -100 -172 -142 -127 -64 -321 -100 -477 -89 l-78 5 -1
-61 -2 -62 -8 65 c-11 76 -16 104 -74 355 -37 163 -83 314 -84 279z m-91
-2460 c0 -8 -19 -13 -24 -6 -3 5 1 9 9 9 8 0 15 -2 15 -3z m-13 -39 c0 -8 -4
-12 -9 -9 -5 3 -6 10 -3 15 9 13 12 11 12 -6z m-107 -209 c0 -3 -4 -8 -10 -11
-5 -3 -10 -1 -10 4 0 6 5 11 10 11 6 0 10 -2 10 -4z"/>
<path d="M3580 9084 c0 -3 20 -26 44 -51 94 -95 158 -266 193 -513 25 -177 25
-816 0 -1035 -41 -357 -67 -534 -103 -695 -9 -41 -17 -84 -18 -95 0 -11 -4
-22 -7 -25 -13 -11 -71 -212 -66 -231 3 -12 1 -17 -6 -12 -6 4 -8 0 -4 -10 3
-9 1 -18 -6 -20 -9 -3 -9 -7 0 -19 14 -17 77 -23 67 -7 -4 7 7 8 30 4 20 -4
36 -3 36 1 0 5 28 10 63 12 34 1 63 6 65 10 1 4 18 6 37 4 19 -2 35 0 35 6 0
5 15 8 33 7 17 -2 38 2 46 8 12 9 13 9 7 0 -4 -8 -1 -13 8 -13 9 0 13 6 10 13
-5 15 22 17 44 3 6 -4 17 -4 22 -1 6 3 10 1 10 -5 0 -8 25 -11 80 -8 44 2 80
0 80 -4 0 -5 18 -8 40 -8 39 0 52 12 28 26 -7 4 -8 3 -4 -4 5 -8 -3 -12 -23
-12 -16 0 -32 4 -35 9 -3 5 -15 11 -26 14 -11 3 -17 1 -14 -4 3 -6 -19 -9 -55
-8 -61 2 -74 12 -23 16 15 2 124 5 242 8 254 6 320 12 320 28 0 7 -5 30 -11
52 -5 22 -12 53 -14 69 -2 15 -8 38 -11 50 -8 22 -9 29 -19 91 -4 22 -17 85
-30 140 -26 113 -56 383 -58 522 l0 93 -56 21 c-97 36 -201 108 -290 199 -102
105 -149 193 -220 408 -26 81 -51 161 -54 177 -5 26 -4 25 13 -10 11 -22 20
-46 20 -53 0 -7 4 -10 10 -7 6 3 7 -1 4 -9 -4 -10 -1 -16 9 -16 11 0 15 -9 14
-27 -1 -20 2 -27 12 -25 12 3 12 0 2 -12 -10 -12 -10 -19 3 -38 9 -12 16 -30
16 -40 0 -21 11 -23 28 -6 9 9 12 8 12 -4 0 -9 4 -19 9 -22 5 -4 7 4 5 16 -2
13 3 5 11 -17 9 -22 14 -48 11 -58 -2 -9 -1 -15 3 -13 4 3 19 -20 34 -50 16
-33 22 -54 15 -54 -7 0 -3 -7 8 -16 17 -14 17 -15 1 -10 -10 3 -15 2 -12 -4 7
-11 33 -9 53 3 18 12 3 30 -20 24 -19 -5 -19 -5 -2 21 17 26 17 26 -1 12 -17
-14 -17 -13 -10 9 4 15 3 21 -3 17 -5 -3 -16 20 -25 52 -27 98 -30 122 -16
122 7 0 30 8 51 17 34 15 38 21 34 45 -2 16 -1 26 3 24 4 -3 13 -1 21 4 11 7
11 11 1 24 -9 11 -10 16 -2 16 6 0 11 -5 11 -11 0 -6 9 -1 21 12 23 27 22 23
-12 -46 -22 -45 -24 -63 -24 -175 0 -121 1 -128 32 -191 33 -67 115 -159 226
-252 l56 -48 0 137 c0 75 3 139 6 142 3 3 5 -21 5 -54 0 -107 30 -465 50 -601
22 -154 68 -353 81 -353 4 0 6 -7 3 -15 -4 -9 0 -15 10 -15 20 0 20 2 1 175
-8 77 -19 195 -25 263 -5 68 -17 156 -26 195 -15 64 -16 134 -10 622 4 302 9
575 12 605 l5 55 -45 -82 c-93 -171 -161 -247 -266 -297 -59 -28 -74 -31 -165
-31 -124 0 -183 23 -250 97 -53 60 -82 131 -94 241 -24 208 -122 431 -214 487
-30 19 -87 28 -87 14z m627 -890 c-3 -3 -12 -4 -19 -1 -8 3 -5 6 6 6 11 1 17
-2 13 -5z m-97 -34 c0 -5 -2 -10 -4 -10 -3 0 -8 5 -11 10 -3 6 -1 10 4 10 6 0
11 -4 11 -10z m-435 -1669 c3 -5 2 -12 -3 -15 -5 -3 -9 1 -9 9 0 17 3 19 12 6z
m158 -88 c-13 -2 -35 -2 -50 0 -16 2 -5 4 22 4 28 0 40 -2 28 -4z m-161 -15
c-17 -17 -39 -18 -39 -2 0 8 11 14 26 14 19 0 22 -3 13 -12z"/>
<path d="M12375 9005 c-38 -6 -115 -23 -170 -38 -136 -35 -226 -47 -342 -47
-87 0 -313 29 -357 46 -14 5 -15 3 -7 -19 6 -14 32 -61 60 -105 51 -82 125
-222 119 -227 -2 -2 -37 40 -78 93 -98 125 -119 147 -131 135 -7 -7 11 -42 51
-104 158 -240 239 -465 282 -789 17 -126 17 -579 0 -685 -7 -44 -20 -114 -28
-155 -8 -41 -16 -89 -19 -105 -2 -17 -17 -82 -34 -145 -16 -63 -27 -118 -25
-122 3 -5 0 -8 -5 -8 -6 0 -11 -6 -11 -14 0 -7 -11 -47 -24 -87 -13 -41 -20
-76 -15 -80 13 -8 229 31 265 48 24 11 49 13 100 8 68 -6 233 -47 266 -65 10
-6 25 -10 33 -10 23 0 95 -24 95 -32 0 -3 -6 -8 -12 -11 -7 -2 -3 -2 9 -1 12
2 25 0 28 -6 3 -5 17 -10 31 -10 15 0 24 -6 24 -16 0 -8 5 -12 11 -9 12 8 62
-40 73 -69 4 -12 2 -23 -6 -29 -9 -6 -8 -7 5 -3 15 5 18 1 15 -17 -2 -12 -9
-21 -16 -19 -6 1 -12 -3 -12 -9 0 -6 9 -8 20 -4 15 5 18 3 14 -8 -3 -8 -1 -18
5 -22 6 -3 11 -11 11 -17 0 -6 -7 -5 -17 3 -16 13 -17 12 -4 -4 10 -12 17 -15
25 -7 13 13 29 13 21 0 -3 -5 -1 -10 4 -10 6 0 11 -6 11 -14 0 -8 4 -17 9 -20
5 -4 8 0 7 6 -4 21 -39 88 -46 88 -4 0 -7 6 -7 13 0 6 -12 36 -27 66 -14 30
-26 61 -26 68 0 7 -5 13 -11 13 -5 0 -8 3 -6 8 3 4 -8 45 -23 92 -16 47 -29
93 -30 103 0 9 -5 17 -11 17 -5 0 -8 4 -5 9 9 13 -5 72 -15 65 -5 -3 -6 2 -3
10 3 9 -1 50 -10 93 -50 252 -67 569 -47 888 5 72 7 132 5 134 -2 2 -8 -9 -14
-25 -28 -72 -42 -147 -46 -243 -2 -57 -6 -107 -9 -109 -3 -3 -6 -48 -7 -101
-1 -88 -2 -83 -11 64 -7 113 -7 208 1 325 17 237 32 324 158 913 31 142 54
260 52 262 -2 2 -57 -9 -123 -24 -66 -16 -149 -31 -185 -34 l-65 -6 83 25
c115 34 242 84 242 95 0 11 -4 10 -95 -6z m-620 -2204 c3 -5 2 -12 -3 -15 -5
-3 -9 1 -9 9 0 17 3 19 12 6z m861 -538 c-7 -7 -26 7 -26 19 0 6 6 6 15 -2 9
-7 13 -15 11 -17z"/>
<path d="M5287 8163 c-4 -82 -14 -193 -22 -248 -9 -55 -19 -125 -23 -155 -4
-30 -10 -60 -14 -65 -3 -6 -18 -98 -32 -205 -15 -107 -37 -262 -49 -345 -27
-185 -31 -575 -6 -591 4 -2 6 -11 3 -18 -3 -8 -1 -17 5 -21 6 -3 11 -12 11
-18 0 -7 -4 -6 -10 3 -8 13 -10 13 -10 -2 0 -9 5 -20 10 -23 6 -4 8 -16 5 -28
-2 -12 -2 -16 1 -8 5 11 10 8 19 -9 10 -19 13 -20 18 -6 4 10 3 15 -3 11 -14
-9 -13 8 2 23 9 9 7 13 -5 18 -9 3 -17 16 -16 28 0 11 3 16 5 9 3 -7 12 -9 20
-6 21 8 244 -19 238 -29 -3 -4 17 -7 43 -6 26 2 101 -4 166 -11 107 -13 116
-16 90 -26 -23 -10 -9 -11 81 -7 91 4 108 3 104 -9 -4 -11 7 -14 51 -15 79 0
154 -8 168 -17 6 -4 14 -3 18 3 7 11 25 4 25 -9 0 -9 -31 -8 -48 3 -7 4 -12 2
-12 -4 0 -6 7 -13 15 -16 8 -4 12 -10 9 -16 -3 -5 3 -12 14 -15 11 -3 19 -10
16 -17 -3 -7 13 -31 35 -53 21 -23 36 -44 33 -47 -3 -3 -1 -6 5 -6 20 0 23 14
6 33 -10 10 -17 21 -15 23 8 14 -1 24 -17 19 -11 -3 -22 -1 -26 5 -3 5 3 10
14 10 19 0 17 6 -19 78 -40 80 -60 139 -53 158 5 15 -95 86 -109 78 -6 -4 -8
-3 -5 3 4 6 -13 25 -36 43 -23 18 -59 53 -81 77 -21 23 -42 40 -47 37 -5 -3
-8 0 -7 8 2 7 -4 12 -12 10 -8 -2 -12 0 -8 3 4 4 2 17 -3 28 -9 16 -13 17 -21
6 -8 -11 -9 -11 -5 1 3 9 -13 45 -34 80 -61 101 -117 258 -150 414 -16 77 -30
155 -31 171 -1 17 -4 -13 -7 -65 -6 -89 -8 -95 -28 -98 -52 -7 -145 206 -177
403 -8 55 -20 159 -26 230 -8 114 -42 331 -53 342 -2 2 -7 -63 -10 -144z m-97
-1698 c0 -12 -19 -12 -23 0 -4 9 -1 12 9 8 7 -3 14 -7 14 -8z m1005 -113 c3
-8 4 -17 2 -19 -8 -7 -34 8 -34 21 0 18 25 16 32 -2z m15 -36 c0 -2 -7 -6 -15
-10 -8 -3 -15 -1 -15 4 0 6 7 10 15 10 8 0 15 -2 15 -4z m27 -52 c-3 -3 -12
-4 -19 -1 -8 3 -5 6 6 6 11 1 17 -2 13 -5z"/>
<path d="M4201 8054 c0 -11 3 -14 6 -6 3 7 2 16 -1 19 -3 4 -6 -2 -5 -13z"/>
<path d="M4222 8035 c0 -16 2 -22 5 -12 2 9 2 23 0 30 -3 6 -5 -1 -5 -18z"/>
<path d="M4121 7973 c-10 -26 -10 -27 4 -9 8 11 15 23 15 28 0 15 -7 8 -19
-19z"/>
<path d="M4203 7973 c0 -29 2 -30 13 -15 16 20 18 36 5 28 -5 -4 -11 0 -13 6
-3 7 -5 -1 -5 -19z"/>
<path d="M4148 7928 c-8 -20 2 -38 20 -38 15 1 16 2 1 13 -9 7 -14 18 -12 25
3 6 3 12 0 12 -3 0 -7 -6 -9 -12z"/>
<path d="M4170 7870 c0 -5 5 -10 11 -10 5 0 7 5 4 10 -3 6 -8 10 -11 10 -2 0
-4 -4 -4 -10z"/>
<path d="M4230 7781 c0 -6 4 -13 10 -16 6 -3 7 1 4 9 -7 18 -14 21 -14 7z"/>
<path d="M4273 7762 c0 -12 5 -22 9 -22 11 0 10 12 -2 30 -7 12 -9 10 -7 -8z"/>
<path d="M11938 6583 c12 -2 32 -2 45 0 12 2 2 4 -23 4 -25 0 -35 -2 -22 -4z"/>
<path d="M12058 6583 c7 -3 16 -2 19 1 4 3 -2 6 -13 5 -11 0 -14 -3 -6 -6z"/>
<path d="M11888 6553 c6 -2 18 -2 25 0 6 3 1 5 -13 5 -14 0 -19 -2 -12 -5z"/>
<path d="M12053 6553 c9 -2 25 -2 35 0 9 3 1 5 -18 5 -19 0 -27 -2 -17 -5z"/>
<path d="M11621 6522 c-7 -13 -6 -19 2 -19 7 0 13 9 13 19 0 10 -1 18 -3 18
-1 0 -7 -8 -12 -18z"/>
<path d="M11650 6520 c0 -5 5 -10 10 -10 7 0 6 -5 -1 -13 -7 -7 -21 -13 -32
-13 -10 1 -26 -10 -35 -24 l-16 -25 23 23 c24 24 32 28 29 11 -2 -6 3 -14 10
-16 6 -3 12 2 12 11 0 8 7 19 15 24 10 5 13 15 9 25 -7 18 -24 23 -24 7z"/>
<path d="M12240 6500 c0 -5 12 -10 26 -10 14 0 23 4 19 10 -3 6 -15 10 -26 10
-10 0 -19 -4 -19 -10z"/>
<path d="M5218 6483 c12 -2 32 -2 45 0 12 2 2 4 -23 4 -25 0 -35 -2 -22 -4z"/>
<path d="M2318 6473 c7 -3 16 -2 19 1 4 3 -2 6 -13 5 -11 0 -14 -3 -6 -6z"/>
<path d="M11112 6439 c-15 -24 -6 -45 13 -29 13 11 63 -4 76 -23 4 -5 9 -5 12
0 4 6 -1 19 -9 29 -9 10 -13 13 -9 7 4 -8 0 -13 -10 -13 -10 0 -13 5 -9 12 4
7 3 8 -4 4 -7 -4 -12 -2 -12 4 0 6 -4 9 -9 5 -6 -3 -14 1 -18 10 -7 12 -10 11
-21 -6z"/>
<path d="M4726 6442 c-4 -7 -4 -12 1 -12 4 0 3 -4 -4 -8 -6 -4 -15 -20 -18
-35 -6 -22 -4 -26 8 -21 18 7 32 -12 16 -22 -8 -4 -9 -3 -5 4 4 7 2 12 -3 12
-6 0 -11 -6 -11 -12 0 -8 -5 -6 -11 4 -6 11 -16 15 -26 11 -12 -5 -15 -2 -11
8 4 11 -7 15 -58 16 -35 1 -64 -2 -64 -7 0 -4 10 -6 23 -3 18 4 19 3 7 -6 -12
-9 -11 -11 8 -11 13 0 21 4 18 8 -3 5 8 8 25 8 16 0 29 -4 29 -9 0 -5 -9 -7
-20 -4 -11 3 -20 1 -20 -5 0 -6 11 -8 25 -6 13 3 26 1 27 -4 2 -5 23 -10 48
-11 41 -2 45 0 46 23 2 34 -21 97 -30 82z m11 -42 c-1 -11 -7 -20 -14 -20 -11
0 -11 5 -3 20 6 11 13 20 15 20 2 0 3 -9 2 -20z"/>
<path d="M5648 6443 c6 -2 18 -2 25 0 6 3 1 5 -13 5 -14 0 -19 -2 -12 -5z"/>
<path d="M4383 6426 c-18 -21 -2 -33 55 -41 44 -6 51 -5 46 8 -4 12 10 16 78
23 l83 8 -50 7 c-27 4 -66 7 -85 7 -30 -1 -29 -2 10 -7 42 -6 39 -7 -42 -16
-82 -10 -88 -9 -82 7 6 21 3 22 -13 4z"/>
<path d="M11056 6432 c-3 -5 1 -9 9 -9 8 0 12 4 9 9 -3 4 -7 8 -9 8 -2 0 -6
-4 -9 -8z"/>
<path d="M2239 6420 c-1 -8 -1 -18 0 -22 0 -5 -4 -8 -10 -8 -6 0 -9 -7 -5 -15
3 -8 1 -15 -5 -15 -6 0 -7 -4 -4 -10 3 -5 2 -10 -2 -10 -8 0 -67 -125 -68
-145 -1 -13 15 -35 26 -35 16 0 9 30 -8 37 -15 6 -14 7 3 13 10 4 22 2 26 -4
5 -8 8 -7 8 2 0 7 5 10 12 6 6 -4 8 -3 4 4 -3 6 -2 13 4 17 5 3 10 12 10 18 0
8 -3 8 -8 2 -10 -15 -34 -13 -40 3 -2 8 3 10 15 6 13 -4 15 -3 4 4 -9 7 -10
12 -2 16 6 4 9 12 5 17 -3 6 2 19 11 29 9 10 17 25 19 33 1 8 8 22 16 31 10
13 10 20 2 28 -9 9 -12 8 -13 -2z m-51 -183 c8 -10 6 -13 -11 -14 -12 0 -16 1
-9 4 6 3 10 9 6 14 -8 14 2 11 14 -4z"/>
<path d="M2660 6413 l-25 -15 25 6 c14 3 33 6 43 6 9 0 17 5 17 10 0 14 -31
11 -60 -7z"/>
<path d="M11018 6423 c7 -3 16 -2 19 1 4 3 -2 6 -13 5 -11 0 -14 -3 -6 -6z"/>
<path d="M11566 6413 c-3 -10 -5 -22 -5 -27 0 -5 -5 -12 -11 -16 -17 -10 -2
-33 17 -26 9 4 13 1 10 -6 -2 -7 -9 -12 -15 -11 -5 1 -8 -7 -5 -18 3 -11 9
-16 12 -11 4 6 11 4 19 -4 7 -8 8 -14 2 -14 -5 0 -10 -4 -10 -10 0 -19 17 -10
29 16 10 22 9 26 -3 21 -19 -7 -26 12 -14 37 7 13 7 16 -1 12 -6 -4 -11 -2
-11 3 0 6 3 11 8 11 4 0 7 14 7 30 1 33 -20 41 -29 13z m17 -15 c-8 -13 -9
-18 -12 -38 0 -5 -6 -10 -12 -10 -6 0 -7 5 -2 13 8 12 9 17 12 37 0 6 6 10 12
10 6 0 7 -5 2 -12z"/>
<path d="M2350 6405 c0 -8 7 -15 15 -15 9 0 12 6 9 15 -4 8 -10 15 -15 15 -5
0 -9 -7 -9 -15z"/>
<path d="M5601 6416 c10 -9 79 -14 79 -5 0 5 -19 9 -42 9 -23 0 -39 -2 -37 -4z"/>
<path d="M11666 6411 c-4 -7 -5 -15 -2 -18 9 -9 19 4 14 18 -4 11 -6 11 -12 0z"/>
<path d="M2280 6400 c20 -13 33 -13 25 0 -3 6 -14 10 -23 10 -15 0 -15 -2 -2
-10z"/>
<path d="M5165 6386 c17 -86 17 -86 39 -85 18 1 18 2 3 6 -14 3 -17 11 -13 26
3 11 0 27 -6 34 -7 9 -7 13 1 13 7 0 9 5 6 10 -4 6 -10 8 -15 5 -4 -3 -11 1
-14 7 -3 7 -4 0 -1 -16z"/>
<path d="M5713 6403 c9 -2 25 -2 35 0 9 3 1 5 -18 5 -19 0 -27 -2 -17 -5z"/>
<path d="M10935 6400 c17 -4 39 -8 50 -8 16 0 15 2 -5 8 -14 4 -36 8 -50 8
-22 0 -22 -1 5 -8z"/>
<path d="M11080 6400 c0 -5 5 -10 11 -10 5 0 7 5 4 10 -3 6 -8 10 -11 10 -2 0
-4 -4 -4 -10z"/>
<path d="M11137 6393 c4 -10 2 -14 -4 -10 -5 3 -10 0 -10 -8 0 -10 5 -11 15
-6 22 12 54 1 48 -16 -4 -9 -1 -12 7 -7 6 4 9 4 5 -1 -4 -4 0 -14 10 -22 9 -8
12 -12 5 -9 -6 4 -15 1 -19 -5 -4 -7 -3 -9 3 -6 6 4 18 -5 28 -19 12 -19 20
-23 29 -15 16 14 52 -11 42 -28 -6 -9 -13 -8 -27 5 -29 26 -23 7 12 -37 17
-21 38 -38 47 -38 15 1 15 2 -1 6 -9 2 -15 8 -12 13 3 5 13 6 22 3 11 -5 14
-3 8 6 -4 7 -18 11 -31 8 -15 -2 -24 1 -24 8 0 20 12 25 28 12 11 -8 9 -2 -4
18 -10 17 -22 33 -27 36 -5 3 -8 9 -8 13 3 17 -1 18 -21 0 -13 -10 -17 -12
-10 -4 15 18 16 38 0 22 -9 -9 -18 -1 -40 36 -15 26 -28 43 -28 39 0 -5 -7 -1
-16 7 -20 21 -35 20 -27 -1z"/>
<path d="M12495 6400 c-3 -5 1 -10 9 -10 9 0 16 5 16 10 0 6 -4 10 -9 10 -6 0
-13 -4 -16 -10z"/>
<path d="M2713 6393 c9 -2 23 -2 30 0 6 3 -1 5 -18 5 -16 0 -22 -2 -12 -5z"/>
<path d="M4500 6380 c0 -5 7 -10 16 -10 8 0 12 5 9 10 -3 6 -10 10 -16 10 -5
0 -9 -4 -9 -10z"/>
<path d="M6084 6368 c-5 -7 -3 -8 7 -3 12 8 12 6 0 -8 -11 -15 -11 -17 1 -17
20 0 18 -38 -2 -50 -10 -7 -11 -10 -2 -10 6 0 12 -5 12 -11 0 -5 -4 -7 -10 -4
-5 3 -10 -1 -10 -9 0 -8 5 -18 10 -21 6 -4 9 -1 8 7 -2 7 3 12 11 10 7 -1 19
2 27 9 11 9 16 6 23 -14 6 -14 16 -29 24 -34 10 -5 12 -14 6 -28 -6 -16 -8
-17 -8 -3 -1 26 -16 29 -16 3 0 -13 2 -21 4 -19 2 2 9 0 15 -5 7 -6 18 -4 30
4 18 13 17 15 -10 43 -16 16 -36 41 -44 56 -11 22 -19 26 -40 21 -22 -5 -23
-4 -8 8 14 11 15 18 5 50 -12 38 -21 45 -33 25z m51 -98 c-3 -5 -12 -10 -18
-10 -7 0 -6 4 3 10 19 12 23 12 15 0z"/>
<path d="M11216 6372 c-3 -5 1 -15 9 -22 8 -7 12 -16 9 -21 -3 -5 3 -6 12 -2
15 5 15 8 2 17 -8 6 -15 15 -16 19 -1 14 -10 19 -16 9z"/>
<path d="M11149 6357 c0 -7 -2 -19 -4 -28 -2 -11 4 -16 16 -15 21 1 27 18 8
25 -7 2 -9 -1 -4 -9 6 -9 4 -11 -5 -5 -10 6 -10 11 4 20 14 11 15 13 1 19 -8
3 -15 0 -16 -7z"/>
<path d="M3000 6350 c0 -5 9 -10 20 -10 11 0 20 5 20 10 0 6 -9 10 -20 10 -11
0 -20 -4 -20 -10z"/>
<path d="M10550 6341 c8 -5 33 -11 55 -15 l40 -7 -29 16 c-15 8 -40 15 -55 15
-19 -1 -22 -3 -11 -9z"/>
<path d="M3360 6325 c0 -8 5 -15 10 -15 6 0 10 7 10 15 0 8 -4 15 -10 15 -5 0
-10 -7 -10 -15z"/>
<path d="M11490 6280 c-29 -43 -36 -60 -25 -60 9 0 15 9 15 21 0 18 3 19 14
10 13 -11 12 -15 -2 -30 -9 -9 -24 -17 -32 -17 -8 1 -14 -5 -12 -13 2 -9 -3
-11 -13 -7 -9 3 -14 2 -11 -3 3 -5 -1 -12 -10 -15 -8 -3 -12 -10 -9 -16 3 -5
1 -10 -6 -10 -7 0 -10 -2 -7 -5 10 -10 38 7 38 23 0 8 3 13 6 9 9 -8 85 64 78
74 -8 13 10 11 25 -3 11 -11 13 -10 9 2 -3 8 -14 15 -26 15 -11 0 -24 4 -28 8
-4 4 -2 7 4 7 7 0 12 7 12 15 0 8 6 15 14 15 9 0 14 9 13 20 -1 11 -2 20 -4
20 -1 0 -21 -27 -43 -60z"/>
<path d="M2229 6328 c-6 -13 -6 -58 0 -58 4 0 7 14 6 30 0 26 -2 36 -6 28z"/>
<path d="M2884 6311 c4 -5 0 -12 -6 -14 -7 -3 6 -6 30 -6 23 -1 42 3 42 8 0 6
12 3 28 -5 36 -19 79 -18 79 1 0 16 -23 21 -29 6 -2 -5 -21 -3 -43 5 -45 15
-109 19 -101 5z"/>
<path d="M3492 6293 c7 -16 17 -32 23 -38 14 -13 13 -37 -1 -42 -6 -2 -17 4
-25 14 -12 15 -12 16 4 10 24 -9 21 0 -4 14 -20 10 -21 9 -17 -9 3 -12 0 -23
-7 -25 -8 -4 -11 5 -8 28 2 19 -1 36 -7 40 -6 4 -8 -7 -5 -31 4 -34 3 -36 -20
-32 -13 3 -22 2 -20 -2 9 -15 68 -21 77 -8 5 9 8 8 8 -6 0 -12 5 -16 15 -13 8
4 17 1 21 -4 3 -6 17 -8 31 -4 16 4 22 2 18 -5 -3 -6 3 -10 16 -10 22 0 22 1
-7 33 -46 49 -84 104 -77 111 4 3 -1 6 -10 6 -14 0 -15 -4 -5 -27z m58 -72 c7
-14 7 -22 -2 -27 -7 -5 -8 -3 -3 6 6 10 4 12 -10 6 -14 -5 -16 -4 -7 7 7 8 9
17 5 20 -3 4 -3 7 0 7 3 0 11 -9 17 -19z"/>
<path d="M10558 6313 c7 -3 16 -2 19 1 4 3 -2 6 -13 5 -11 0 -14 -3 -6 -6z"/>
<path d="M2830 6300 c8 -5 20 -10 25 -10 6 0 3 5 -5 10 -8 5 -19 10 -25 10 -5
0 -3 -5 5 -10z"/>
<path d="M3065 6301 c-6 -10 1 -15 18 -12 4 0 7 -3 7 -9 0 -5 10 -10 23 -9 14
0 17 2 7 6 -8 3 -22 12 -32 20 -11 10 -18 11 -23 4z"/>
<path d="M3125 6300 c-5 -8 -4 -11 3 -6 6 3 13 -3 17 -14 4 -12 15 -20 29 -20
25 0 50 22 39 33 -3 4 -1 7 5 7 15 0 15 -23 1 -37 -9 -9 -7 -12 9 -10 11 0 18
5 16 9 -5 8 7 11 41 9 14 0 16 1 5 6 -8 3 -21 13 -28 22 -11 14 -11 14 -6 -1
7 -21 -11 -24 -19 -4 -8 21 -47 15 -59 -8 -10 -19 -11 -19 -28 4 -13 17 -19
20 -25 10z m80 -9 c3 -5 1 -12 -5 -16 -5 -3 -10 1 -10 9 0 18 6 21 15 7z"/>
<path d="M3341 6298 c-1 -10 -8 -18 -16 -18 -8 0 -15 -4 -15 -10 0 -5 -11 -10
-25 -10 -14 0 -25 -5 -25 -11 0 -7 10 -9 25 -5 14 4 25 2 25 -4 0 -5 8 -10 18
-10 16 1 16 2 0 13 -15 12 -15 14 4 26 18 11 20 11 15 -3 -4 -9 -2 -16 3 -16
6 0 10 -7 10 -15 0 -8 6 -15 14 -15 9 0 12 8 8 25 -2 14 -8 25 -13 25 -6 0
-14 10 -19 23 -7 17 -9 18 -9 5z"/>
<path d="M5241 6301 c-9 -6 -6 -8 13 -8 14 0 23 3 20 8 -7 11 -15 11 -33 0z"/>
<path d="M2800 6283 c0 -5 5 -15 11 -23 9 -12 10 -11 5 5 -5 17 -4 18 6 5 7
-9 23 -15 36 -14 12 1 25 -3 28 -7 3 -5 -1 -9 -8 -9 -10 0 -9 -3 2 -9 8 -6 19
-7 25 -4 5 4 6 2 2 -3 -14 -15 -58 -12 -53 3 3 7 1 13 -4 13 -6 0 -10 -7 -10
-16 0 -8 -5 -12 -10 -9 -6 4 -8 10 -6 14 3 4 -1 8 -9 8 -8 0 -12 -4 -9 -9 3
-5 -60 -8 -141 -7 -81 0 -149 -2 -153 -6 -3 -3 64 -5 151 -3 86 2 157 -1 157
-6 0 -4 25 -6 55 -4 30 2 55 1 55 -4 0 -4 10 -8 23 -7 l22 0 -22 9 c-13 5 -23
12 -23 14 0 3 10 11 23 17 20 11 21 11 8 -4 -16 -20 -1 -23 18 -4 10 10 11 9
6 -4 -4 -10 -1 -20 6 -25 7 -4 10 -3 6 3 -7 12 15 23 41 22 12 0 10 -3 -5 -9
-31 -13 -29 -30 3 -30 19 0 25 4 20 15 -8 21 18 19 35 -2 12 -15 12 -16 -3
-10 -10 4 -18 2 -18 -4 0 -6 9 -9 20 -6 11 3 23 1 26 -4 8 -14 51 -10 57 5 5
13 -23 26 -68 32 -5 0 -17 4 -25 7 -39 17 -114 35 -123 30 -5 -3 -13 1 -18 8
-4 7 -11 10 -16 6 -4 -5 -1 -12 6 -16 9 -6 10 -11 2 -15 -6 -4 -11 -2 -11 4 0
7 -7 9 -16 6 -14 -5 -15 -4 -4 9 10 12 9 16 -3 21 -9 3 -20 3 -26 0 -5 -3 -11
-2 -13 2 -4 11 -58 25 -58 15z m247 -89 c-3 -3 -12 -4 -19 -1 -8 3 -5 6 6 6
11 1 17 -2 13 -5z m103 -14 c12 -8 10 -9 -7 -7 -12 2 -26 6 -29 10 -11 11 19
8 36 -3z"/>
<path d="M5190 6280 c0 -5 7 -10 16 -10 8 0 12 5 9 10 -3 6 -10 10 -16 10 -5
0 -9 -4 -9 -10z"/>
<path d="M11203 6253 c1 -23 5 -39 9 -37 4 2 9 0 13 -5 3 -6 13 -7 21 -4 15 5
15 7 0 15 -9 5 -14 12 -12 16 2 4 -4 19 -14 32 l-18 24 1 -41z m24 -10 c-4 -3
-1 -13 6 -22 11 -14 10 -14 -5 -2 -16 12 -16 31 -1 31 4 0 3 -3 0 -7z"/>
<path d="M5260 6270 c0 -5 5 -10 11 -10 5 0 7 5 4 10 -3 6 -8 10 -11 10 -2 0
-4 -4 -4 -10z"/>
<path d="M11120 6266 c0 -10 9 -16 21 -16 24 0 21 23 -4 28 -10 2 -17 -3 -17
-12z"/>
<path d="M5240 6255 c0 -8 4 -15 10 -15 5 0 7 7 4 15 -4 8 -8 15 -10 15 -2 0
-4 -7 -4 -15z"/>
<path d="M6945 6260 c3 -5 8 -10 11 -10 2 0 4 5 4 10 0 6 -5 10 -11 10 -5 0
-7 -4 -4 -10z"/>
<path d="M11260 6266 c0 -2 7 -9 15 -16 9 -7 15 -8 15 -2 0 5 -7 12 -15 16 -8
3 -15 4 -15 2z"/>
<path d="M5209 6246 c7 -8 14 -25 16 -37 3 -13 11 -29 20 -35 8 -6 12 -13 10
-16 -9 -9 42 -73 55 -70 11 3 11 0 1 -12 -10 -12 -9 -17 8 -28 12 -7 21 -18
21 -24 0 -6 8 -18 18 -27 16 -15 19 -15 30 3 7 12 8 20 2 20 -5 0 -10 -4 -10
-10 0 -5 -5 -10 -11 -10 -7 0 -9 10 -5 25 4 14 3 25 -1 24 -5 -1 -15 -1 -22 0
-12 1 -12 4 -3 13 9 9 7 17 -10 35 -24 25 -14 32 12 8 14 -13 16 -12 16 5 0
10 -5 16 -10 13 -5 -4 -7 1 -3 10 3 10 2 17 -3 17 -6 0 -10 -5 -10 -11 0 -5
-4 -7 -10 -4 -5 3 -10 0 -10 -7 0 -9 -3 -9 -10 2 -6 9 -10 10 -10 3 0 -6 5
-15 10 -18 6 -3 10 -11 10 -18 0 -26 -32 23 -33 51 -1 17 -5 28 -9 26 -7 -5
-21 14 -24 34 -1 6 2 10 7 6 5 -3 7 -10 4 -15 -4 -5 -2 -9 4 -9 18 0 21 18 3
25 -9 3 -19 6 -22 5 -2 -1 -7 8 -12 19 -4 12 -13 21 -19 21 -9 0 -9 -3 0 -14z"/>
<path d="M6804 6249 c-22 -5 -17 -7 24 -8 28 0 52 3 52 8 0 10 -29 10 -76 0z"/>
<path d="M11570 6240 c0 -5 5 -10 11 -10 5 0 7 5 4 10 -3 6 -8 10 -11 10 -2 0
-4 -4 -4 -10z"/>
<path d="M9920 6236 c0 -2 9 -6 20 -9 11 -3 20 -1 20 4 0 5 -9 9 -20 9 -11 0
-20 -2 -20 -4z"/>
<path d="M11618 6233 c-10 -2 -18 -9 -18 -14 0 -14 20 -11 36 6 16 15 13 16
-18 8z"/>
<path d="M12505 6230 c-3 -5 -13 -6 -22 -3 -15 6 -16 5 -3 -9 13 -14 16 -14
23 -2 5 8 12 12 18 9 5 -4 9 -1 9 4 0 14 -17 14 -25 1z"/>
<path d="M2265 6221 c-6 -11 13 -26 22 -17 4 3 1 6 -6 6 -7 0 -9 5 -6 10 3 6
4 10 1 10 -3 0 -7 -4 -11 -9z"/>
<path d="M2290 6220 c0 -5 5 -10 10 -10 6 0 10 5 10 10 0 6 -4 10 -10 10 -5 0
-10 -4 -10 -10z"/>
<path d="M2320 6220 c0 -6 -11 -15 -25 -22 -19 -8 -28 -8 -41 3 -14 11 -18 11
-28 -2 -6 -9 -18 -18 -26 -22 -8 -3 0 -6 18 -6 17 -1 32 3 32 7 0 4 16 6 35 4
26 -3 35 -1 33 9 -2 8 7 15 20 17 12 2 20 8 17 13 -8 12 -35 12 -35 -1z"/>
<path d="M2491 6225 c-1 -6 -29 -12 -63 -13 -34 -2 -69 -8 -78 -13 -9 -6 14
-7 65 -3 89 7 89 7 82 26 -3 7 -6 8 -6 3z"/>
<path d="M6826 6214 c-10 -25 -8 -29 22 -46 25 -14 28 -14 45 2 16 15 16 18 2
23 -9 4 -15 1 -15 -8 0 -21 -14 -18 -36 7 -10 12 -13 18 -7 14 7 -4 21 -2 30
4 15 9 14 10 -6 4 -16 -4 -21 -3 -17 5 4 6 3 11 -2 11 -6 0 -13 -7 -16 -16z"/>
<path d="M9883 6223 c-18 -7 -16 -20 2 -20 8 0 15 4 15 9 0 5 5 6 10 3 17 -11
11 -24 -9 -20 -20 4 -49 -21 -37 -32 3 -3 6 -1 6 6 0 8 7 11 15 7 8 -3 15 -1
15 5 0 6 5 7 10 4 6 -3 13 1 16 9 3 9 10 13 15 10 5 -2 21 2 36 10 19 10 22
15 11 16 -9 0 -19 -4 -22 -8 -6 -10 -42 -9 -52 1 -8 8 -13 8 -31 0z"/>
<path d="M10547 6216 c-3 -8 -2 -18 3 -21 13 -8 24 15 12 27 -6 6 -11 4 -15
-6z"/>
<path d="M11713 6209 c6 -22 -11 -51 -25 -43 -7 4 -8 2 -4 -4 7 -12 -10 -16
-49 -12 -14 1 -17 -2 -10 -9 12 -12 85 -3 85 10 0 5 6 6 13 3 8 -3 20 2 27 11
10 12 15 13 20 4 5 -7 13 -8 21 -3 8 5 24 7 37 5 12 -1 22 1 22 6 0 12 -42 14
-56 2 -8 -7 -14 -7 -19 1 -4 7 -12 7 -25 0 -10 -5 -22 -10 -25 -10 -10 0 6 44
19 52 6 4 0 6 -12 5 -16 -1 -22 -6 -19 -18z"/>
<path d="M11766 6218 c3 -5 10 -5 16 -2 7 5 9 1 5 -9 -9 -23 0 -22 12 1 8 15
6 18 -14 18 -13 0 -21 -4 -19 -8z"/>
<path d="M11880 6218 c0 -5 10 -6 21 -3 15 5 19 4 14 -5 -4 -7 -20 -10 -35 -8
-18 3 -26 0 -24 -7 5 -12 54 -19 54 -7 0 4 57 9 128 10 126 4 172 12 138 25
-10 4 -15 3 -11 -3 4 -6 -18 -10 -58 -10 -35 0 -93 -2 -128 -5 -44 -4 -58 -2
-44 4 15 7 16 10 5 12 -48 6 -60 5 -60 -3z"/>
<path d="M11978 6223 c7 -3 16 -2 19 1 4 3 -2 6 -13 5 -11 0 -14 -3 -6 -6z"/>
<path d="M12397 6216 c-6 -15 -47 -29 -47 -16 0 5 6 10 13 13 7 2 6 3 -3 3 -8
-1 -16 -9 -18 -18 -3 -14 3 -17 26 -15 17 1 28 5 26 9 -3 4 3 11 12 16 10 6
12 12 6 16 -5 3 -12 0 -15 -8z"/>
<path d="M12438 6223 c10 -4 8 -9 -7 -20 -28 -19 -26 -33 5 -31 23 2 24 4 8
15 -17 12 -17 13 0 13 10 0 20 -9 23 -21 4 -16 12 -20 29 -16 13 2 24 0 24 -4
0 -5 10 -9 23 -8 l22 0 -23 11 c-16 8 -21 17 -16 31 5 17 4 18 -9 6 -8 -8 -13
-17 -10 -21 2 -5 -3 -8 -12 -8 -9 0 -13 5 -10 10 3 6 1 10 -5 10 -6 0 -8 5 -4
12 4 6 3 8 -3 5 -6 -4 -13 0 -17 8 -3 8 -11 15 -18 14 -10 0 -10 -2 0 -6z"/>
<path d="M9820 6211 c-22 -6 -23 -8 -7 -14 10 -4 26 -7 35 -6 11 0 12 2 4 6
-6 2 -10 9 -6 14 3 5 4 9 2 8 -2 -1 -14 -4 -28 -8z"/>
<path d="M12204 6208 c-5 -8 -2 -9 9 -5 10 3 17 2 17 -3 0 -6 23 -10 51 -10
36 0 49 4 47 13 -3 6 -13 13 -24 14 -18 3 -18 2 1 -6 16 -8 12 -10 -22 -10
-23 -1 -45 4 -48 9 -8 13 -22 13 -31 -2z"/>
<path d="M7025 6201 c-3 -5 -1 -12 5 -16 5 -3 10 1 10 9 0 18 -6 21 -15 7z"/>
<path d="M11818 6203 c7 -3 16 -2 19 1 4 3 -2 6 -13 5 -11 0 -14 -3 -6 -6z"/>
<path d="M9588 6193 c6 -2 18 -2 25 0 6 3 1 5 -13 5 -14 0 -19 -2 -12 -5z"/>
<path d="M11206 6191 c-4 -6 -1 -11 6 -11 9 0 9 -3 -2 -10 -20 -13 -4 -13 20
0 13 7 21 7 25 0 8 -12 -12 -40 -28 -40 -6 0 -2 7 9 15 10 8 14 15 7 15 -6 0
-19 -10 -28 -22 -11 -15 -19 -19 -22 -11 -2 7 -11 9 -20 6 -10 -4 -14 -2 -10
4 4 6 -11 10 -38 10 -35 1 -42 -2 -32 -11 14 -14 49 -17 41 -4 -3 4 -1 8 5 8
17 0 24 -22 10 -31 -7 -4 -10 -11 -6 -15 4 -4 14 1 23 12 8 10 13 13 9 7 -8
-17 -5 -16 49 7 47 20 56 36 34 59 -11 12 -9 13 7 7 16 -6 17 -5 8 5 -9 9 -16
9 -26 1 -9 -8 -17 -8 -24 -1 -8 8 -13 8 -17 0z"/>
<path d="M11529 6178 c-1 -13 -1 -26 0 -30 0 -5 -4 -8 -10 -8 -6 0 -8 9 -4 23
7 22 7 22 -8 2 -9 -11 -11 -22 -6 -23 5 -2 7 -8 3 -13 -3 -5 -1 -9 5 -9 5 0
13 5 16 10 4 6 10 8 14 6 4 -3 8 8 9 24 1 16 -2 31 -8 35 -5 3 -11 -4 -11 -17z"/>
<path d="M7405 6180 c-3 -5 3 -10 14 -10 12 0 21 5 21 10 0 6 -6 10 -14 10 -8
0 -18 -4 -21 -10z"/>
<path d="M11040 6172 c0 -27 25 -48 27 -22 1 10 -5 24 -13 31 -11 9 -14 8 -14
-9z"/>
<path d="M7486 6165 c4 -8 8 -15 10 -15 2 0 4 7 4 15 0 8 -4 15 -10 15 -5 0
-7 -7 -4 -15z"/>
<path d="M9545 6170 c-8 -13 -1 -24 14 -19 6 3 7 10 2 18 -6 10 -10 10 -16 1z"/>
<path d="M9574 6164 c3 -9 6 -18 6 -20 0 -2 10 -4 23 -4 18 0 19 2 7 10 -11 7
-6 10 20 10 26 0 31 3 20 10 -8 5 -30 10 -49 10 -26 0 -32 -3 -27 -16z"/>
<path d="M9800 6168 c-56 -15 -63 -32 -10 -24 45 7 69 20 53 28 -4 3 -24 1
-43 -4z"/>
<path d="M12665 6170 c17 -9 16 -10 -9 -6 -15 2 -40 -3 -55 -10 -25 -14 -23
-14 29 -12 41 2 55 7 55 18 0 8 -9 16 -20 17 l-20 3 20 -10z"/>
<path d="M7368 6163 c7 -3 16 -2 19 1 4 3 -2 6 -13 5 -11 0 -14 -3 -6 -6z"/>
<path d="M10852 6158 c-8 -8 -8 -17 -1 -31 8 -14 7 -22 -2 -31 -9 -8 -10 -8
-4 4 6 12 5 13 -5 3 -8 -7 -11 -15 -8 -18 9 -10 132 -20 191 -17 48 3 57 7 52
19 -4 13 -3 14 9 3 9 -6 21 -10 28 -7 8 3 6 6 -5 6 -10 1 -16 5 -13 10 12 19
-23 19 -43 0 -19 -17 -31 -20 -94 -15 -39 3 -76 5 -81 5 -5 1 -6 4 -3 8 4 3 2
12 -5 20 -8 10 -8 17 0 25 14 14 16 28 4 28 -4 0 -13 -5 -20 -12z"/>
<path d="M6925 6130 c45 -21 69 -25 60 -10 -3 6 -1 10 4 10 6 0 11 -6 11 -14
0 -15 52 -28 88 -22 12 3 22 1 22 -5 0 -5 32 -9 70 -9 39 0 70 4 70 8 0 4 16
6 35 4 26 -3 35 0 35 11 0 8 6 17 13 20 7 2 8 8 3 13 -5 5 -11 4 -13 -3 -3 -7
-9 -13 -15 -13 -6 0 -7 8 -3 18 5 13 4 14 -6 5 -10 -10 -9 -16 1 -28 12 -14 9
-15 -20 -10 -18 3 -38 9 -43 12 -7 4 -8 -1 -3 -13 5 -14 4 -16 -4 -7 -9 8 -9
16 -1 30 6 10 11 12 11 6 0 -15 26 -17 35 -3 4 6 -1 7 -11 3 -11 -4 -15 -3
-11 4 10 16 -18 10 -35 -7 -8 -8 -14 -19 -14 -25 1 -12 -59 -19 -82 -10 -24 9
1 28 50 36 l43 6 -42 2 c-23 0 -49 4 -59 8 -12 4 -15 3 -10 -5 4 -7 2 -12 -3
-12 -6 0 -11 5 -11 12 0 6 -3 8 -7 4 -5 -4 1 -14 11 -22 19 -14 19 -14 -1 -14
-12 0 -24 6 -26 13 -3 7 -6 5 -6 -5 -1 -19 -16 -24 -26 -9 -3 5 5 17 17 25 12
9 18 16 13 16 -5 0 -20 -10 -33 -22 -14 -13 -22 -17 -18 -10 4 6 2 12 -4 12
-6 0 -8 5 -5 10 10 16 -18 7 -32 -10 -10 -13 -12 -13 -18 3 -5 11 -17 17 -39
16 l-31 0 40 -19z"/>
<path d="M7346 6125 c-14 -22 -15 -25 -1 -25 8 0 15 4 15 9 0 5 10 7 23 5 20
-4 20 -4 -3 6 -20 9 -22 13 -10 20 8 5 10 10 4 10 -7 0 -19 -11 -28 -25z"/>
<path d="M7445 6140 c-3 -5 -1 -10 4 -10 6 0 11 5 11 10 0 6 -2 10 -4 10 -3 0
-8 -4 -11 -10z"/>
<path d="M8885 6127 c-38 -12 -90 -37 -115 -55 -69 -51 -201 -111 -266 -122
-33 -5 -105 -17 -161 -26 l-103 -16 -163 61 c-90 34 -174 61 -186 61 -11 0
-30 -9 -40 -19 -31 -31 -179 -125 -286 -182 -55 -29 -103 -58 -107 -63 -4 -6
-8 -8 -8 -4 0 3 -57 -19 -127 -49 -221 -95 -587 -216 -903 -298 -82 -21 -116
-26 -155 -20 -27 4 -129 8 -225 9 -144 2 -189 6 -250 24 -92 26 -181 64 -238
103 -24 16 -56 29 -71 29 -56 0 -152 60 -247 154 -86 87 -204 232 -204 252 0
6 -13 31 -29 56 -27 42 -34 46 -79 53 -31 4 -58 2 -71 -4 -55 -30 -118 -31
-244 -6 -193 38 -294 53 -404 60 l-102 7 -78 -73 c-42 -41 -98 -92 -123 -114
-25 -22 -66 -60 -92 -85 -26 -25 -53 -49 -62 -55 -8 -5 -60 -50 -116 -99
l-101 -89 -42 32 c-105 79 -227 131 -306 131 l-36 0 42 -20 c35 -16 47 -29 76
-87 19 -37 45 -99 58 -136 l24 -69 -24 -19 c-13 -11 -27 -16 -31 -12 -4 4 -14
44 -23 87 -18 84 -32 109 -121 217 -65 78 -69 79 -235 79 l-116 -1 60 -28 c33
-16 77 -46 97 -67 71 -75 171 -325 141 -355 -19 -19 -34 0 -83 105 -69 148
-227 335 -297 352 -34 9 -154 -3 -228 -23 -33 -8 -77 -17 -97 -18 -54 -3 -175
-65 -233 -118 -27 -25 -45 -46 -38 -47 6 0 15 5 18 10 13 20 96 10 171 -21 64
-27 90 -46 174 -128 96 -94 125 -140 102 -163 -20 -20 -58 6 -164 113 -80 80
-124 115 -170 138 -90 44 -118 48 -145 19 -18 -20 -93 -143 -93 -154 0 -2 15
6 34 17 31 18 40 19 97 9 92 -17 219 -84 219 -117 0 -21 -41 -10 -104 28 -56
35 -131 51 -213 47 l-58 -3 -23 -59 c-13 -32 -22 -60 -19 -62 2 -2 22 4 45 13
35 13 50 14 99 4 66 -13 98 -36 73 -51 -23 -15 -54 -12 -108 9 -27 11 -59 17
-71 14 -26 -7 -51 -51 -51 -89 0 -15 -8 -36 -17 -46 -16 -17 -15 -19 4 -33 11
-8 26 -27 32 -43 l12 -29 58 20 c62 23 91 19 91 -12 0 -29 -36 -44 -91 -39
-45 5 -49 3 -49 -16 0 -12 11 -39 23 -61 18 -32 28 -39 47 -37 24 3 87 32 160
72 71 40 58 -25 -14 -70 -20 -12 -60 -24 -90 -27 -54 -6 -54 -6 -45 -32 6 -14
21 -40 34 -57 22 -29 28 -31 72 -27 86 9 122 23 182 73 63 52 106 64 118 33
10 -25 -44 -64 -147 -106 -92 -38 -156 -47 -179 -24 -11 10 -12 8 -3 -8 14
-27 137 -145 152 -145 26 0 215 42 234 52 12 6 36 24 54 39 37 33 57 36 66 13
10 -25 -9 -49 -79 -98 -100 -72 -177 -93 -223 -60 -37 25 -25 1 21 -43 51 -49
171 -131 203 -139 13 -4 35 -3 49 0 26 7 108 103 188 220 43 63 147 268 147
290 0 6 -21 32 -46 56 -25 25 -69 72 -97 104 l-52 59 69 62 68 62 -16 31 c-15
30 -22 82 -10 82 17 0 45 -24 64 -55 l22 -35 71 7 c47 4 76 12 83 22 9 12 15
13 26 4 9 -8 93 -11 283 -10 220 2 276 5 300 17 25 13 70 15 255 13 224 -2
293 3 402 28 l58 13 34 -37 34 -37 121 0 c72 0 121 4 121 10 0 18 57 39 91 34
19 -3 61 1 94 8 72 17 201 10 198 -9 -2 -9 12 -13 45 -13 26 0 63 -4 82 -10
72 -21 186 -24 229 -6 52 20 95 20 155 0 60 -21 286 -16 326 6 18 10 63 14
162 15 125 0 138 -2 138 -17 0 -17 17 -18 225 -18 197 0 229 2 252 17 37 25
86 25 139 2 39 -16 69 -19 208 -19 119 0 177 4 216 16 57 17 118 15 208 -7 43
-11 71 -11 160 1 59 7 135 15 170 17 41 3 62 9 62 17 0 21 176 27 258 9 37 -8
84 -12 105 -9 39 7 107 -15 107 -33 0 -15 262 -14 294 1 14 6 33 22 41 35 19
28 68 31 141 7 40 -14 109 -17 384 -20 262 -3 347 -7 390 -19 80 -22 466 -20
810 5 151 11 345 23 430 26 85 4 157 8 158 10 6 4 -77 41 -458 204 -415 178
-919 388 -940 392 -8 2 -17 6 -20 9 -11 12 -253 109 -260 104 -5 -3 -10 -1
-12 4 -3 10 -142 71 -168 74 -8 1 -17 5 -20 8 -9 12 -133 59 -154 58 -12 0
-52 -10 -91 -22z m-6382 -393 c66 -34 178 -147 245 -247 55 -84 63 -107 34
-107 -22 0 -96 77 -197 205 -43 55 -94 117 -113 138 -43 44 -38 46 31 11z
m197 -480 c39 -33 66 -82 52 -96 -25 -25 -122 72 -108 108 8 20 20 18 56 -12z
m-152 -57 c7 -8 7 -18 2 -27 -11 -18 -43 -2 -48 24 -4 20 30 22 46 3z m20
-193 c4 -30 -40 -79 -62 -71 -19 8 -15 34 11 75 17 28 47 25 51 -4z m240 -120
c4 -30 -40 -79 -62 -71 -19 8 -15 34 11 75 17 28 47 25 51 -4z"/>
<path d="M9630 6138 c0 -5 25 -8 55 -8 30 0 55 3 55 8 0 4 -25 7 -55 7 -30 0
-55 -3 -55 -7z"/>
<path d="M10740 6140 c-13 -9 -13 -11 0 -20 9 -6 18 -6 24 0 15 15 30 12 17
-4 -9 -11 -7 -15 11 -19 14 -4 26 0 34 11 18 24 7 30 -12 6 -12 -14 -14 -15
-11 -3 4 11 -3 20 -19 28 -30 13 -25 13 -44 1z"/>
<path d="M11555 6127 c-28 -14 -44 -16 -55 -9 -13 7 -17 6 -17 -4 0 -17 27
-18 88 -1 33 8 44 15 35 22 -8 7 -23 5 -51 -8z"/>
<path d="M6243 6124 c0 -7 4 -11 9 -8 13 8 10 -10 -4 -25 -10 -11 -10 -13 0
-7 6 4 12 3 12 -2 0 -5 24 -9 54 -8 30 1 52 4 49 9 -6 9 4 9 25 -1 9 -5 28 -6
42 -1 26 7 23 8 -65 14 -11 0 -23 -4 -27 -10 -5 -6 -8 -3 -8 6 0 9 -9 19 -20
22 -11 3 -18 2 -16 -1 5 -10 -20 -32 -28 -25 -3 3 -1 12 5 20 9 10 8 13 0 13
-7 0 -10 4 -7 8 3 5 -1 9 -8 9 -7 0 -13 -6 -13 -13z m72 -34 c-3 -5 -11 -10
-16 -10 -6 0 -7 5 -4 10 3 6 11 10 16 10 6 0 7 -4 4 -10z"/>
<path d="M10875 6130 c3 -5 15 -10 26 -10 10 0 19 -6 19 -12 0 -9 3 -8 10 2 6
9 5 17 -3 22 -18 11 -59 10 -52 -2z"/>
<path d="M11040 6120 c0 -5 5 -10 11 -10 5 0 7 5 4 10 -3 6 -8 10 -11 10 -2 0
-4 -4 -4 -10z"/>
<path d="M6526 6107 c-10 -8 -29 -12 -42 -9 -18 3 -24 0 -24 -14 0 -15 2 -16
9 -5 9 14 42 9 40 -6 -3 -20 2 -25 15 -14 11 9 16 9 22 0 4 -8 3 -9 -4 -5 -8
5 -10 2 -6 -9 4 -10 1 -14 -7 -12 -8 2 -10 2 -6 -1 4 -2 3 -10 -3 -17 -6 -7
-7 -16 -2 -19 5 -3 19 17 32 45 21 44 22 51 9 64 -13 13 -18 13 -33 2z m30
-23 c2 -11 -1 -12 -10 -5 -7 6 -17 7 -22 3 -4 -4 -2 1 5 11 15 19 24 16 27 -9z"/>
<path d="M6152 6084 c-11 -12 -9 -14 8 -14 11 0 20 4 20 9 0 17 -15 19 -28 5z"/>
<path d="M10695 6071 c-7 -12 43 -48 93 -65 33 -12 43 -12 58 -2 17 13 16 14
-4 25 -18 9 -22 9 -20 -1 5 -21 -45 -9 -64 15 -9 12 -14 25 -12 29 3 4 0 8 -5
8 -14 0 -14 -13 1 -28 9 -9 9 -12 1 -12 -7 0 -15 9 -18 20 -7 21 -20 26 -30
11z"/>
<path d="M10765 6058 c5 -26 11 -32 24 -23 16 9 13 19 -8 32 -17 11 -19 10
-16 -9z"/>
<path d="M5487 6062 c-17 -3 -17 -5 -2 -16 10 -7 19 -25 20 -40 3 -24 0 -27
-17 -23 l-20 6 20 -20 c22 -20 47 -17 56 7 3 7 2 13 -2 13 -23 -4 -29 4 -26
36 3 38 -2 44 -29 37z"/>
<path d="M5440 6041 c0 -5 -10 -7 -22 -3 -21 5 -22 4 -8 -12 12 -16 12 -19 -2
-27 -22 -12 -15 -45 14 -77 26 -27 115 -91 104 -74 -3 5 -1 12 6 14 19 7 -68
114 -92 114 -11 0 -20 -4 -20 -8 0 -4 -4 -8 -10 -8 -14 0 -1 27 16 34 9 3 12
1 9 -4 -3 -6 -4 -10 -1 -10 3 0 10 10 17 21 8 17 8 20 -1 14 -9 -5 -10 -1 -5
14 3 11 4 21 1 21 -3 0 -6 -4 -6 -9z m12 -88 c-12 -2 -20 -9 -17 -14 3 -5 -1
-6 -10 -2 -13 5 -14 7 -3 14 7 5 22 8 33 7 17 -1 17 -1 -3 -5z m23 -36 c0 -8
4 -19 9 -24 5 -4 6 -3 2 4 -3 6 -1 15 5 19 8 4 9 3 5 -5 -4 -6 0 -14 8 -17 9
-3 13 -10 10 -15 -9 -15 -57 17 -59 40 -1 12 3 20 9 18 6 -2 11 -11 11 -20z"/>
<path d="M6487 6043 c-10 -9 -9 -23 1 -23 5 0 9 7 9 15 0 17 -1 18 -10 8z"/>
<path d="M5467 6019 c6 -22 23 -26 23 -5 0 8 -6 16 -14 19 -10 4 -12 0 -9 -14z"/>
<path d="M10855 5999 c-9 -14 -6 -15 34 -24 23 -5 31 -4 27 4 -4 6 -14 11 -22
11 -8 0 -14 5 -14 10 0 13 -17 13 -25 -1z"/>
<path d="M5564 5982 c3 -5 -6 -15 -19 -22 -31 -17 -23 -30 15 -25 18 2 28 0
24 -6 -3 -5 -10 -7 -15 -4 -10 7 -12 -8 -2 -18 3 -4 12 1 19 10 10 14 9 23 -2
45 -8 16 -17 28 -20 28 -3 0 -3 -4 0 -8z m16 -26 c0 -2 -9 -6 -20 -9 -11 -3
-18 -1 -14 4 5 9 34 13 34 5z"/>
<path d="M6440 5975 c0 -8 5 -15 10 -15 6 0 10 7 10 15 0 8 -4 15 -10 15 -5 0
-10 -7 -10 -15z"/>
<path d="M6497 5979 c7 -7 15 -10 18 -7 3 3 -2 9 -12 12 -14 6 -15 5 -6 -5z"/>
<path d="M6487 5953 c4 -11 2 -14 -5 -9 -8 4 -12 0 -12 -11 0 -10 -11 -23 -25
-30 -24 -10 -25 -10 -19 15 4 22 2 21 -11 -7 -11 -25 -12 -37 -4 -47 8 -10 8
-14 0 -14 -6 0 -11 -6 -11 -12 1 -13 54 43 91 93 16 22 16 28 4 32 -10 4 -12
1 -8 -10z m-55 -77 c7 4 8 2 4 -5 -9 -13 -26 -5 -25 12 0 9 2 8 6 -1 2 -6 10
-9 15 -6z"/>
<path d="M11952 5925 c-35 -8 -69 -18 -75 -23 -7 -5 -43 -20 -82 -32 -112 -37
-204 -86 -217 -118 -46 -116 -58 -251 -33 -377 22 -108 32 -118 133 -130 l62
-7 0 35 c0 69 28 91 49 39 18 -42 12 -88 -25 -188 l-32 -90 26 -116 c22 -100
29 -118 50 -127 24 -11 28 -48 4 -44 -15 4 -17 14 18 -145 37 -170 40 -177 87
-200 42 -22 202 -72 227 -72 19 0 157 133 175 168 12 23 12 23 -11 11 -35 -19
-108 -27 -147 -17 -20 6 -61 27 -91 47 -30 20 -82 53 -115 73 -100 61 -131
108 -69 108 16 0 35 -11 51 -31 69 -82 237 -156 327 -143 83 11 111 34 195
157 31 46 32 48 9 43 -114 -23 -216 -12 -319 35 -81 38 -96 51 -74 69 20 17
88 7 216 -31 148 -44 199 -52 227 -37 27 14 82 117 106 197 19 63 21 98 3 63
-18 -39 -82 -64 -177 -69 -107 -6 -154 5 -158 37 -4 23 -3 23 57 17 64 -7 141
11 246 58 55 24 67 46 82 151 l6 48 -27 -26 c-46 -42 -288 -77 -315 -44 -22
27 12 37 115 35 92 -3 104 -1 168 29 l69 32 -7 52 c-4 29 -8 54 -10 55 -1 2
-20 -6 -40 -17 -70 -35 -181 -35 -181 1 0 10 21 16 85 20 47 4 98 12 114 18
27 11 28 14 22 58 -3 26 -10 51 -15 56 -4 4 -25 -3 -45 -17 -53 -35 -75 -41
-94 -23 -23 24 -1 44 64 57 52 11 54 12 54 45 0 18 3 40 6 49 4 12 0 16 -15
16 -12 0 -29 9 -39 21 -24 29 -70 51 -92 44 -10 -3 -33 -23 -51 -43 -51 -59
-99 -80 -99 -43 0 21 61 74 104 91 15 5 39 10 54 10 l27 1 -30 24 c-53 43 -81
50 -123 31 -68 -33 -127 -86 -167 -151 -38 -63 -65 -83 -65 -47 0 31 58 118
110 165 41 37 59 47 93 49 l42 3 -60 28 c-123 58 -149 54 -205 -28 -39 -56
-58 -109 -75 -209 -16 -89 -42 -141 -71 -141 -16 0 -19 8 -22 56 -5 88 43 225
103 295 49 57 97 89 121 80 7 -3 16 -1 18 3 14 22 -158 26 -252 6z m-102 -115
c-5 -25 -14 -102 -20 -170 -11 -127 -22 -183 -40 -210 -9 -13 -13 -12 -26 5
-21 27 -10 216 17 294 18 52 67 137 74 129 2 -1 0 -23 -5 -48z m268 -398 c3
-16 -2 -22 -17 -22 -26 0 -36 17 -20 36 16 19 33 13 37 -14z m-148 -12 c11
-20 1 -78 -19 -109 -8 -12 -12 -12 -25 -2 -20 17 -20 51 -2 96 17 40 30 44 46
15z m258 -120 c52 -32 37 -60 -22 -40 -34 11 -51 33 -40 51 8 14 26 11 62 -11z
m-120 -206 c47 -30 10 -56 -44 -31 -32 16 -43 35 -27 50 8 9 40 0 71 -19z
m-143 -138 c24 -10 35 -22 35 -35 0 -25 -17 -27 -50 -4 -26 18 -40 33 -40 46
0 11 17 9 55 -7z"/>
<path d="M5590 5903 c0 -13 95 -65 104 -56 3 3 6 0 6 -8 0 -11 2 -11 10 1 5 8
14 16 20 16 5 1 15 2 21 3 8 1 8 6 -1 16 -17 21 -27 19 -33 -6 -5 -17 -9 -19
-26 -9 -23 12 -27 25 -9 36 8 5 9 2 5 -9 -3 -10 -3 -17 2 -17 5 0 11 8 13 18
4 15 -2 18 -38 18 -35 1 -42 -2 -33 -13 16 -19 -1 -16 -23 4 -10 9 -18 12 -18
6z m76 -22 c0 -11 -6 -17 -13 -14 -6 3 -9 11 -6 19 7 20 19 17 19 -5z"/>
<path d="M5720 5830 c0 -5 5 -10 11 -10 5 0 7 5 4 10 -3 6 -8 10 -11 10 -2 0
-4 -4 -4 -10z"/>
<path d="M5780 5819 c0 -7 -8 -18 -17 -26 -10 -8 -13 -12 -6 -8 19 9 68 -6 52
-16 -7 -4 -19 -3 -25 2 -8 7 -15 6 -20 -2 -5 -9 -10 -9 -18 2 -6 8 -22 15 -36
17 l-25 3 24 -21 c12 -11 27 -17 32 -14 5 3 9 1 9 -4 0 -12 89 -44 100 -37 5
3 10 0 12 -7 3 -8 27 -12 66 -13 34 0 62 -3 62 -7 0 -5 14 -8 30 -8 17 0 30 3
30 8 0 4 22 5 50 4 31 -3 50 0 50 7 0 6 -7 7 -17 4 -11 -4 -14 -3 -9 5 10 16
-6 15 -23 0 -11 -11 -13 -10 -8 4 3 10 1 20 -5 24 -7 4 -8 3 -4 -5 11 -18 -22
-25 -49 -11 -14 7 -22 16 -20 20 2 4 -2 7 -10 7 -8 0 -15 -5 -15 -10 0 -5 -7
-7 -15 -3 -8 3 -15 1 -15 -5 0 -7 10 -9 24 -5 20 5 24 2 23 -13 -1 -15 -4 -17
-14 -9 -7 5 -20 8 -28 4 -10 -3 -15 1 -16 12 0 14 -2 14 -9 -3 -5 -11 -9 -14
-9 -6 -1 11 -4 11 -16 1 -10 -8 -15 -9 -15 -2 0 6 12 18 28 26 l27 14 -27 -1
c-14 -1 -24 -5 -22 -9 2 -4 0 -9 -5 -13 -5 -3 -14 3 -20 12 -6 10 -11 13 -11
8 0 -6 5 -16 12 -23 9 -9 9 -12 0 -12 -6 0 -16 8 -21 18 -6 9 -11 12 -11 6 0
-17 -47 -5 -47 12 0 12 9 17 27 16 3 0 5 14 5 32 1 28 -3 32 -27 34 -16 1 -28
-3 -28 -9z m24 -14 c3 -8 1 -15 -4 -15 -6 0 -10 7 -10 15 0 8 2 15 4 15 2 0 6
-7 10 -15z m-14 -50 c10 -12 10 -15 -2 -15 -8 0 -15 7 -15 15 0 8 1 15 2 15 2
0 8 -7 15 -15z m250 -56 c0 -6 -4 -7 -10 -4 -5 3 -10 11 -10 16 0 6 5 7 10 4
6 -3 10 -11 10 -16z"/>
<path d="M5888 5823 c6 -2 18 -2 25 0 6 3 1 5 -13 5 -14 0 -19 -2 -12 -5z"/>
<path d="M6245 5820 c-4 -6 -4 -14 -1 -17 3 -4 6 0 7 8 1 8 4 3 8 -11 l7 -25
13 25 c8 14 10 22 6 18 -5 -4 -14 -3 -21 3 -8 7 -14 7 -19 -1z"/>
<path d="M6304 5822 c3 -6 2 -13 -4 -17 -5 -3 -15 -16 -22 -28 -11 -21 -10
-21 7 -7 17 14 18 13 12 -5 -7 -19 -6 -19 7 -2 7 9 18 17 25 17 6 0 10 10 10
23 -1 15 -3 17 -6 5 -2 -9 -11 -19 -19 -22 -17 -6 -19 5 -3 21 8 8 7 13 -2 18
-7 5 -10 4 -5 -3z"/>
<path d="M6353 5815 c0 -18 19 -15 25 3 2 7 -3 12 -10 12 -8 0 -15 -7 -15 -15z"/>
<path d="M6237 5755 c-2 -14 -1 -28 3 -30 4 -3 10 7 13 20 2 14 1 28 -3 30 -4
3 -10 -7 -13 -20z"/>
<path d="M6042 5738 c2 -6 10 -13 16 -14 7 -1 8 0 2 3 -5 2 -8 9 -4 14 3 5 0
9 -6 9 -7 0 -10 -5 -8 -12z"/>
<path d="M6110 5741 c0 -5 10 -13 23 -17 12 -4 25 -11 28 -16 8 -13 69 0 69
14 0 6 -7 7 -16 4 -13 -5 -14 -3 -6 7 8 10 6 13 -11 14 -12 1 -17 -1 -12 -5
16 -11 16 -32 0 -32 -8 0 -14 3 -14 8 1 4 1 14 0 22 -1 11 -4 11 -13 2 -15
-15 -32 -16 -23 -2 3 6 -1 10 -9 10 -9 0 -16 -4 -16 -9z"/>
<path d="M11423 5670 c-57 -33 -109 -70 -117 -83 -8 -12 -17 -51 -21 -87 -3
-36 -8 -80 -11 -98 l-5 -33 73 2 c52 1 83 -3 106 -15 37 -19 36 -22 17 69 -27
128 -17 196 41 272 14 18 24 33 22 33 -2 0 -49 -27 -105 -60z"/>
<path d="M11196 5489 c-26 -23 -60 -61 -77 -85 l-30 -44 71 0 70 0 -6 56 c-6
47 -4 59 15 85 31 41 12 36 -43 -12z"/>
<path d="M5670 4961 c-14 -4 -101 -11 -194 -14 -93 -4 -171 -9 -173 -11 -2 -2
0 -219 6 -482 7 -374 13 -489 24 -525 13 -40 13 -49 0 -80 -12 -29 -14 -90 -9
-394 4 -198 9 -451 12 -562 l6 -201 247 -4 c135 -2 248 -2 250 -1 1 1 -6 30
-18 65 -18 55 -25 132 -50 588 -29 511 -29 534 -17 838 10 250 16 316 27 323
8 5 33 9 55 9 23 0 60 7 83 15 l41 14 0 -214 c0 -177 3 -220 16 -248 15 -31
15 -38 0 -90 -10 -36 -16 -94 -16 -167 l0 -113 153 7 c83 3 187 9 230 12 l77
7 1 181 c1 99 4 307 8 461 l6 280 -108 111 -109 112 -168 7 -168 7 -76 -51
c-41 -28 -78 -51 -81 -51 -3 0 -5 41 -5 90 0 95 0 96 -50 81z"/>
<path d="M3398 4913 c-83 -2 -128 -7 -128 -14 0 -6 6 -37 14 -68 11 -43 16
-185 21 -600 6 -442 10 -550 22 -578 12 -29 12 -44 2 -82 -9 -35 -9 -151 -3
-471 l9 -425 34 -3 c19 -2 48 4 67 14 32 17 34 17 54 -1 19 -17 53 -20 365
-34 l344 -14 161 153 c147 140 161 156 154 179 -4 14 -6 49 -5 78 3 74 -38
425 -52 443 -6 8 -53 63 -103 121 l-92 105 36 45 c20 24 64 76 98 116 l62 71
32 137 32 136 -9 178 c-7 132 -13 183 -25 199 -8 13 -78 90 -154 173 l-139
150 -80 -5 c-44 -3 -89 -5 -100 -5 -115 3 -518 4 -617 2z m606 -455 c3 -40 6
-80 5 -88 0 -8 -3 -121 -5 -252 l-5 -236 -105 -7 c-58 -4 -108 -4 -112 -1 -5
6 -21 613 -17 623 2 4 176 31 206 32 26 1 27 -1 33 -71z m6 -1005 c0 -21 7
-119 14 -218 8 -99 12 -182 11 -184 -2 -2 -65 2 -139 9 l-135 13 -5 106 c-3
58 -5 115 -6 126 0 11 2 52 6 92 l6 72 42 5 c83 11 102 13 154 15 l52 1 0 -37z"/>
<path d="M10715 4913 c-50 -3 -75 -9 -90 -22 -11 -11 -34 -22 -52 -26 -27 -5
-51 -33 -156 -173 l-124 -167 -66 -460 -66 -460 28 -92 c15 -51 37 -106 49
-122 15 -21 22 -44 22 -78 0 -29 21 -118 50 -218 27 -94 59 -204 71 -245 l21
-75 181 -84 182 -84 84 11 c46 6 94 19 108 27 18 12 31 14 58 6 24 -6 73 -4
165 8 71 10 132 20 134 22 2 2 18 58 36 124 17 66 47 181 67 255 l36 135 -7
186 c-4 102 -11 201 -15 220 -4 19 -4 43 0 54 4 11 8 61 8 112 l1 91 -237 6
c-131 3 -267 9 -302 12 -63 6 -64 6 -57 -18 9 -32 25 -254 26 -360 l0 -87 85
-26 c47 -14 85 -31 85 -38 0 -30 -29 -239 -33 -244 -3 -3 -43 -7 -89 -10 -46
-2 -105 -12 -131 -20 -27 -8 -50 -13 -52 -12 -2 2 -13 157 -25 344 l-22 340
50 373 c27 205 51 374 53 376 2 2 43 6 92 10 l87 7 0 -196 c0 -113 -5 -215
-11 -241 -6 -25 -10 -46 -8 -48 2 -2 94 -6 204 -10 l200 -7 -3 148 c-1 81 4
247 12 368 8 121 14 220 13 221 -1 1 -89 40 -195 88 l-192 86 -103 -2 c-56 -1
-133 -4 -172 -5z"/>
<path d="M8920 4899 c-17 -7 -82 -9 -197 -6 -155 4 -173 3 -173 -12 0 -9 7
-128 16 -266 12 -193 20 -262 35 -304 18 -50 18 -58 5 -100 -11 -36 -17 -183
-25 -701 -6 -360 -14 -710 -18 -777 l-6 -123 198 0 197 0 -6 153 c-4 83 -6
170 -6 192 1 22 4 362 8 755 l7 715 84 -450 c46 -248 92 -472 102 -500 11 -27
19 -72 19 -99 0 -40 115 -684 123 -693 2 -1 82 1 178 6 118 5 182 5 199 -2 14
-6 96 -13 183 -16 l158 -6 -8 40 c-9 47 -8 232 7 1265 9 629 14 777 27 833 8
37 14 69 12 71 -2 2 -98 1 -212 -2 l-209 -5 6 -71 c8 -87 19 -1673 13 -1666
-3 3 -31 149 -61 325 -31 176 -63 336 -70 356 -8 19 -14 55 -14 80 0 24 -25
179 -55 344 -30 165 -68 377 -83 472 -15 95 -30 177 -33 182 -9 15 -370 24
-401 10z"/>
<path d="M6558 4319 c2 -483 5 -590 17 -621 13 -32 13 -40 0 -65 -22 -41 -18
-269 9 -623 13 -174 19 -307 14 -324 -4 -16 -6 -31 -4 -33 7 -7 378 18 436 29
30 6 115 12 187 13 218 5 191 -11 316 189 76 123 107 182 107 204 0 21 10 43
30 66 17 18 42 60 56 92 25 58 26 60 37 477 7 290 7 427 0 446 -7 21 -7 34 2
52 19 36 -28 368 -54 387 -10 7 -102 75 -206 152 l-187 140 -77 0 c-49 -1 -82
-6 -95 -15 -14 -10 -24 -11 -45 -3 -15 6 -135 13 -286 16 l-260 4 3 -583z
m584 180 c51 -7 88 -16 88 -23 1 -6 9 -200 19 -430 l19 -419 -29 -216 c-16
-119 -29 -229 -29 -245 0 -26 -2 -28 -27 -20 -36 10 -53 10 -135 0 l-68 -8 0
44 c0 24 9 268 20 542 16 393 18 506 8 532 -9 25 -9 39 0 59 7 14 12 64 12
110 0 98 -11 91 122 74z"/>
<path d="M4643 4818 c4 -24 12 -164 18 -313 6 -148 14 -272 16 -275 5 -6 466
-41 471 -35 11 11 14 235 3 268 -10 30 -9 46 7 99 13 42 21 102 23 178 l4 115
-170 3 c-115 2 -182 -1 -208 -9 -30 -10 -43 -10 -58 -1 -10 7 -40 12 -65 12
l-47 0 6 -42z"/>
<path d="M7894 4769 c4 -52 11 -193 16 -314 6 -120 14 -222 18 -226 4 -3 88
-12 187 -18 99 -7 203 -15 231 -18 l51 -5 7 120 c5 97 4 129 -8 157 -14 33
-14 40 4 84 13 33 21 88 26 180 l7 132 -194 -5 c-107 -3 -205 -5 -219 -6 -14
0 -49 2 -79 6 l-53 6 6 -93z"/>
<path d="M2676 4346 l-39 -24 44 -23 c47 -25 131 -60 135 -56 6 6 -80 127 -90
127 -6 0 -28 -11 -50 -24z"/>
<path d="M11894 4293 c-1 -21 -5 -49 -9 -61 l-8 -24 34 17 c48 25 150 88 147
91 -2 1 -22 -3 -45 -9 -35 -9 -48 -8 -78 6 -20 9 -37 17 -38 17 -1 0 -2 -17
-3 -37z"/>
<path d="M4670 3946 c0 -94 5 -146 15 -176 14 -39 14 -48 -1 -87 -15 -40 -16
-91 -12 -514 4 -259 8 -472 10 -475 7 -7 416 21 424 29 14 13 17 135 5 181 -8
34 -8 53 4 87 10 31 19 159 30 431 9 213 20 440 24 505 5 65 6 121 2 124 -3 4
-76 9 -161 12 -118 4 -161 2 -179 -7 -21 -12 -29 -11 -55 5 -17 10 -48 19 -68
19 l-38 0 0 -134z"/>
<path d="M7924 3918 c3 -90 5 -179 5 -198 -4 -151 -3 -1020 2 -1024 5 -6 338
11 395 20 31 4 31 5 37 78 4 45 2 87 -4 106 -9 25 -8 48 4 103 10 49 21 208
32 487 10 228 19 449 22 491 l5 76 -157 5 c-99 4 -167 2 -185 -5 -21 -8 -35
-7 -63 6 -19 9 -49 17 -67 17 l-31 0 5 -162z"/>
<path d="M12270 1949 c0 -69 -3 -139 -6 -155 -5 -27 -4 -29 28 -29 l33 0 1
120 c0 66 4 134 8 151 7 31 6 32 -28 36 l-36 4 0 -127z"/>
<path d="M2525 2051 c17 -43 25 -169 19 -275 -6 -108 -5 -119 10 -113 33 13
142 18 189 9 l47 -9 0 33 0 34 -89 0 -88 0 -7 51 c-4 28 -5 54 -2 56 3 3 41 6
86 7 l80 1 0 30 0 30 -85 -3 -85 -3 0 49 c0 60 3 62 111 62 l79 0 0 28 0 27
-135 0 c-112 0 -134 -2 -130 -14z"/>
<path d="M4645 1991 c4 -45 5 -81 2 -81 -3 0 -17 4 -32 10 -62 23 -119 -45
-119 -142 -1 -50 3 -62 26 -85 34 -34 79 -35 113 -3 l25 23 0 -26 c0 -23 4
-27 31 -27 l30 0 -8 73 c-9 81 -10 136 -3 252 l5 80 -39 3 -38 3 7 -80z m-7
-143 c31 -31 -1 -128 -43 -128 -30 0 -45 26 -45 77 0 46 14 63 50 63 14 0 31
-5 38 -12z"/>
<path d="M3564 2050 c-30 -12 -53 -48 -60 -92 -5 -27 -12 -38 -27 -40 -15 -2
-20 -11 -21 -36 -1 -26 3 -32 20 -32 29 0 34 -17 34 -116 l0 -85 33 3 c30 3
32 5 27 38 -2 19 -5 64 -5 100 0 65 0 65 28 63 15 -1 27 3 27 10 0 7 3 22 6
35 6 19 3 22 -25 22 -19 0 -34 6 -38 15 -8 23 26 55 59 55 27 0 29 3 26 33 -3
28 -7 32 -33 34 -16 1 -40 -2 -51 -7z"/>
<path d="M4757 2008 c10 -38 13 -98 11 -206 l-3 -152 44 0 c40 0 43 2 37 23
-16 53 -25 200 -20 290 l7 97 -45 0 -45 0 14 -52z"/>
<path d="M5345 2010 c-9 -64 -12 -70 -35 -70 -16 0 -20 -6 -20 -35 0 -28 4
-35 20 -35 17 0 20 -7 20 -47 0 -110 40 -173 110 -173 39 0 40 1 40 35 0 32
-3 35 -29 35 -35 0 -47 14 -56 62 -11 60 0 88 35 88 28 0 30 3 30 35 0 33 -2
35 -31 35 -31 0 -31 1 -25 39 3 22 8 46 12 54 4 11 -4 16 -30 19 -35 4 -35 4
-41 -42z"/>
<path d="M6753 2041 c-32 -20 -42 -39 -47 -89 -2 -19 -10 -28 -25 -30 -17 -3
-21 -10 -21 -37 0 -27 4 -34 23 -37 21 -3 22 -8 25 -100 3 -96 3 -98 27 -98
41 0 56 10 45 30 -5 10 -13 49 -16 87 -5 56 -4 71 10 82 9 7 22 11 30 8 15 -6
26 12 26 43 0 14 -9 20 -32 22 -17 2 -33 8 -35 15 -6 19 34 53 63 53 23 0 25
3 22 33 -3 28 -7 32 -33 35 -17 1 -44 -6 -62 -17z"/>
<path d="M7556 2051 c-2 -3 -7 -30 -11 -58 -6 -47 -9 -53 -31 -53 -21 0 -24
-5 -24 -35 0 -30 3 -35 24 -35 23 0 24 -3 25 -65 1 -102 43 -160 113 -153 29
3 33 7 36 36 3 30 2 32 -30 32 -48 0 -58 15 -58 87 l0 63 30 0 c28 0 30 3 30
35 0 32 -2 35 -31 35 -33 0 -33 -2 -12 86 4 18 -1 22 -27 26 -17 3 -32 2 -34
-1z"/>
<path d="M8924 2003 c-8 -49 -12 -58 -31 -61 -19 -3 -23 -10 -23 -38 0 -27 4
-34 20 -34 17 0 20 -7 20 -43 0 -24 7 -66 15 -94 18 -61 49 -86 103 -81 34 3
37 6 40 36 3 30 2 32 -31 32 -40 0 -52 12 -61 62 -11 59 1 88 35 88 26 0 29 3
29 35 0 33 -2 35 -31 35 -31 0 -31 1 -25 39 3 22 9 46 12 55 4 11 0 16 -14 16
-11 0 -27 3 -35 6 -11 4 -17 -8 -23 -53z"/>
<path d="M10545 2036 c-3 -12 -6 -37 -7 -56 -3 -30 -7 -35 -31 -38 -25 -3 -28
-7 -25 -35 2 -24 8 -33 26 -35 20 -3 22 -9 22 -55 0 -111 37 -167 111 -167 38
0 39 1 39 35 0 33 -2 35 -35 35 -29 0 -37 5 -46 27 -5 15 -9 47 -7 72 3 44 4
46 36 49 31 3 33 6 30 35 -2 27 -8 33 -30 35 -31 4 -35 22 -19 79 9 30 8 31
-25 35 -29 3 -35 0 -39 -16z"/>
<path d="M12085 2025 c-2 -16 -6 -41 -7 -55 -2 -18 -10 -26 -28 -28 -21 -2
-25 -8 -24 -35 1 -25 6 -33 22 -35 19 -3 22 -10 22 -50 0 -109 40 -172 110
-172 39 0 40 1 40 35 0 33 -2 35 -34 35 -28 0 -36 5 -45 29 -7 15 -11 48 -9
72 3 42 5 44 36 47 31 3 33 6 30 35 -2 27 -8 33 -30 35 -31 4 -35 22 -19 79 9
30 8 31 -25 35 -31 4 -34 2 -39 -27z"/>
<path d="M7707 1983 c5 -32 8 -118 8 -191 l0 -132 36 0 36 0 -5 70 c-3 44 0
81 8 100 11 27 17 31 44 28 l31 -3 0 -65 c0 -36 -3 -77 -8 -92 -7 -27 -6 -28
33 -28 l40 0 0 101 c0 98 -1 101 -29 130 -36 36 -73 37 -106 4 l-25 -24 0 79
0 80 -35 0 -35 0 7 -57z"/>
<path d="M10700 2023 c0 -10 4 -65 10 -123 6 -60 6 -134 2 -172 l-8 -68 36 0
36 0 0 83 c-1 92 10 117 50 117 34 0 45 -34 34 -109 -5 -33 -11 -64 -14 -70
-3 -5 12 -11 33 -13 l38 -3 7 87 c5 66 3 96 -8 122 -25 61 -75 72 -127 29
l-32 -28 6 83 6 82 -34 0 c-27 0 -35 -4 -35 -17z"/>
<path d="M3894 2016 c-3 -8 -4 -23 -2 -33 5 -25 61 -25 66 0 7 37 -51 67 -64
33z"/>
<path d="M11450 2015 c-19 -23 -3 -55 30 -55 32 0 45 22 30 51 -13 23 -43 25
-60 4z"/>
<path d="M3087 1932 c-16 -16 -31 -48 -38 -80 -27 -129 40 -231 138 -206 97
24 116 223 28 292 -40 32 -94 29 -128 -6z m109 -57 c23 -36 16 -152 -11 -171
-24 -18 -28 -18 -56 5 -21 17 -24 28 -23 83 0 34 6 73 13 86 16 30 56 29 77
-3z"/>
<path d="M5542 1937 c-42 -45 -57 -169 -27 -227 37 -72 115 -92 165 -42 27 27
50 85 50 125 0 44 -24 108 -52 136 -39 40 -103 44 -136 8z m116 -82 c22 -65
-4 -165 -43 -165 -35 0 -55 38 -55 103 0 76 19 110 58 105 21 -2 30 -11 40
-43z"/>
<path d="M6887 1935 c-26 -26 -47 -91 -47 -145 0 -35 23 -96 47 -122 22 -25
77 -33 114 -17 86 35 91 235 8 293 -36 25 -92 21 -122 -9z m110 -65 c16 -31
17 -111 1 -144 -16 -36 -46 -43 -72 -17 -17 18 -21 33 -21 84 1 78 17 109 53
105 16 -2 31 -13 39 -28z"/>
<path d="M4042 1928 c-29 -32 -42 -71 -42 -131 0 -104 69 -172 150 -148 55 16
69 37 42 63 -19 19 -22 20 -37 4 -32 -31 -105 -11 -105 29 0 19 23 25 97 25
l65 0 -4 61 c-4 54 -9 66 -36 90 -41 37 -98 40 -130 7z m98 -48 c11 -11 20
-31 20 -45 0 -24 -3 -25 -55 -25 -55 0 -55 0 -49 28 6 26 37 62 55 62 5 0 18
-9 29 -20z"/>
<path d="M6320 1943 c-36 -13 -60 -47 -60 -84 0 -46 16 -63 79 -84 56 -18 74
-35 65 -59 -10 -27 -68 -17 -72 12 -3 18 -10 22 -38 22 -27 0 -34 -4 -34 -19
0 -31 46 -78 84 -85 47 -9 103 15 111 47 14 54 3 70 -68 105 -72 34 -87 53
-66 78 19 23 63 14 67 -13 3 -19 10 -23 38 -23 23 0 34 5 34 15 0 60 -79 110
-140 88z"/>
<path d="M8012 1935 c-30 -22 -56 -114 -47 -171 13 -91 96 -144 169 -109 43
21 50 38 25 61 -18 16 -20 16 -38 0 -38 -35 -114 -5 -98 38 5 13 21 16 82 16
l75 0 0 40 c0 52 -21 103 -51 124 -30 20 -88 21 -117 1z m100 -59 c4 -6 8 -23
8 -38 0 -27 -2 -28 -50 -28 -46 0 -50 2 -50 23 0 53 65 83 92 43z"/>
<path d="M8725 1940 c-11 -4 -32 -21 -47 -36 l-27 -29 24 -11 c19 -9 27 -9 36
2 25 31 79 10 79 -30 0 -19 -5 -21 -50 -18 -44 4 -53 1 -80 -26 -34 -35 -38
-69 -12 -101 20 -26 76 -40 112 -30 14 4 42 7 64 8 32 1 37 4 31 19 -4 9 -10
61 -14 115 -6 77 -12 102 -27 116 -23 23 -62 32 -89 21z m63 -197 c3 -27 -1
-33 -22 -39 -38 -9 -61 -1 -64 24 -5 33 16 54 52 50 27 -3 31 -7 34 -35z"/>
<path d="M9632 1928 c-30 -33 -42 -71 -42 -136 0 -71 26 -117 77 -139 41 -17
99 -6 123 23 11 13 10 19 -8 36 -19 19 -22 20 -37 4 -33 -33 -111 -9 -103 33
3 13 19 17 82 19 l78 3 -4 61 c-4 53 -9 65 -36 89 -41 37 -98 40 -130 7z m98
-48 c11 -11 20 -31 20 -45 0 -24 -3 -25 -55 -25 -49 0 -55 2 -55 20 0 22 41
70 60 70 5 0 19 -9 30 -20z"/>
<path d="M10042 1928 c-30 -33 -42 -71 -42 -136 0 -71 26 -117 77 -139 41 -17
99 -6 123 23 11 13 10 19 -8 36 -19 19 -22 20 -37 4 -33 -33 -111 -9 -103 33
3 13 19 17 82 19 l78 3 -4 61 c-4 53 -9 65 -36 89 -41 37 -98 40 -130 7z m98
-48 c11 -11 20 -31 20 -45 0 -24 -3 -25 -55 -25 -49 0 -55 2 -55 20 0 22 41
70 60 70 5 0 19 -9 30 -20z"/>
<path d="M11253 1926 c-67 -57 -50 -118 42 -150 52 -18 60 -25 60 -46 0 -21
-5 -25 -30 -25 -23 0 -31 5 -33 23 -3 18 -10 22 -43 22 -44 0 -44 1 -25 -44
40 -96 202 -78 194 22 -3 35 -7 39 -65 67 -76 37 -87 47 -78 74 10 32 63 29
71 -4 5 -21 12 -25 40 -25 43 0 46 26 7 70 -40 45 -98 51 -140 16z"/>
<path d="M11634 1935 c-17 -7 -39 -23 -47 -36 -15 -21 -15 -23 6 -34 17 -9 25
-9 38 2 33 28 79 9 79 -32 0 -18 -5 -20 -35 -17 -71 8 -125 -26 -125 -79 0
-55 68 -96 130 -78 14 4 42 7 63 8 24 1 36 5 32 11 -4 6 -10 58 -14 116 -6 84
-12 109 -27 123 -27 26 -64 32 -100 16z m74 -192 c3 -27 -1 -33 -22 -39 -38
-9 -61 -1 -64 24 -5 33 16 54 52 50 27 -3 31 -7 34 -35z"/>
<path d="M11854 1940 c-48 -19 -72 -101 -39 -133 8 -9 37 -23 64 -32 27 -9 54
-22 60 -29 18 -22 2 -46 -30 -46 -22 0 -30 6 -35 25 -5 21 -12 25 -40 25 -27
0 -34 -4 -34 -19 0 -30 38 -70 80 -82 79 -24 156 51 112 109 -9 13 -41 33 -71
45 -63 26 -82 47 -61 72 20 24 64 16 68 -12 3 -19 10 -23 42 -23 38 0 38 0 30
30 -12 43 -19 51 -56 66 -38 16 -59 17 -90 4z"/>
<path d="M2867 1920 c-50 -39 -62 -156 -23 -215 36 -55 119 -67 165 -24 l22
21 -26 19 c-23 19 -27 19 -47 5 -29 -20 -34 -20 -58 4 -25 25 -27 95 -4 128
19 28 54 26 69 -4 8 -17 14 -19 33 -11 29 13 28 42 -3 72 -31 32 -91 34 -128
5z"/>
<path d="M3654 1913 c14 -71 16 -123 8 -185 l-8 -68 36 0 37 0 -1 85 c-1 74 2
87 21 106 24 25 52 20 60 -11 4 -15 14 -20 40 -20 35 0 35 1 29 32 -15 77 -93
104 -143 51 l-26 -28 5 33 c4 31 3 32 -30 32 -31 0 -33 -2 -28 -27z"/>
<path d="M4245 1800 l0 -140 37 0 37 0 -6 70 c-7 77 7 126 39 135 37 13 50
-13 46 -90 -3 -38 -8 -77 -12 -86 -6 -14 0 -17 33 -21 l40 -3 3 80 c2 44 0 96
-4 115 -14 69 -87 93 -133 44 l-25 -27 0 32 c0 27 -3 31 -27 31 l-28 0 0 -140z"/>
<path d="M5906 1881 c9 -82 -1 -129 -31 -143 -19 -8 -28 -8 -41 3 -13 11 -15
26 -11 84 2 38 8 78 12 88 6 15 1 17 -34 17 l-41 0 0 -104 c0 -89 3 -107 21
-130 27 -34 82 -36 116 -4 l23 21 0 -26 c0 -23 4 -27 28 -27 l27 0 0 140 0
140 -37 0 -38 0 6 -59z"/>
<path d="M6017 1903 c4 -21 7 -84 6 -140 l-2 -103 33 0 32 0 0 85 c-1 73 2 87
20 106 26 25 64 18 64 -12 0 -15 7 -19 36 -19 36 0 36 1 30 32 -15 77 -93 104
-143 51 l-26 -28 5 33 c4 31 3 32 -29 32 -34 0 -34 0 -26 -37z"/>
<path d="M7097 1913 c5 -16 8 -79 7 -140 l-1 -113 36 0 36 0 -3 81 c-3 61 0
86 12 105 21 32 54 31 66 -1 7 -19 17 -25 40 -25 35 0 40 22 15 69 -24 47 -83
56 -122 19 l-23 -21 0 26 c0 24 -4 27 -35 27 -34 0 -35 -1 -28 -27z"/>
<path d="M8385 1800 l0 -140 37 0 37 0 -6 70 c-7 77 7 126 39 135 37 13 50
-13 46 -90 -3 -38 -8 -77 -12 -86 -6 -14 0 -17 33 -21 l40 -3 3 80 c2 44 0 96
-4 115 -14 69 -87 93 -133 44 l-25 -27 0 32 c0 27 -3 31 -27 31 l-28 0 0 -140z"/>
<path d="M9237 1870 c9 -101 -17 -151 -69 -134 -18 5 -20 13 -16 82 3 43 8 85
12 95 7 15 3 17 -32 17 l-39 0 -5 -77 c-9 -130 15 -183 80 -183 23 0 44 8 59
22 l23 21 0 -26 c0 -23 4 -27 28 -27 l27 0 0 140 0 140 -37 0 -37 0 6 -70z"/>
<path d="M9344 1913 c14 -71 16 -123 8 -185 l-8 -68 36 0 37 0 -1 85 c-1 74 2
87 21 106 24 25 52 20 60 -11 4 -15 14 -20 40 -20 35 0 35 1 29 32 -15 77 -93
104 -143 51 l-26 -28 5 33 c4 31 3 32 -30 32 -31 0 -33 -2 -28 -27z"/>
<path d="M10245 1800 l0 -140 37 0 36 0 -5 59 c-8 83 3 129 32 143 19 8 28 8
41 -3 13 -11 15 -26 11 -84 -2 -38 -8 -78 -12 -87 -6 -16 -1 -18 34 -18 l41 0
0 95 c0 100 -13 147 -45 159 -33 12 -66 5 -90 -19 l-25 -24 0 29 c0 26 -4 30
-27 30 l-28 0 0 -140z"/>
<path d="M11116 1876 c8 -81 -7 -133 -43 -142 -14 -4 -30 -1 -36 5 -14 14 -12
108 2 159 l10 32 -39 0 -38 0 -7 -83 c-7 -85 1 -125 32 -159 23 -25 81 -23
110 4 l23 21 0 -26 c0 -23 4 -27 31 -27 28 0 30 2 25 28 -14 70 -16 122 -8
185 l8 67 -38 0 -39 0 7 -64z"/>
<path d="M4875 1836 c1 -69 6 -100 18 -119 22 -33 68 -43 108 -23 18 9 34 16
36 16 1 0 3 -22 3 -48 0 -53 -12 -72 -47 -72 -18 0 -25 7 -29 28 -5 24 -10 27
-42 26 -33 -1 -37 -4 -34 -25 6 -40 30 -68 71 -80 48 -14 85 -6 118 27 25 25
26 28 17 112 -5 48 -7 124 -6 170 l2 82 -33 0 -33 0 1 -75 c0 -64 -3 -77 -23
-97 -18 -18 -26 -21 -40 -12 -14 10 -17 26 -16 98 l1 86 -36 0 -37 0 1 -94z"/>
<path d="M3898 1914 c-3 -3 -2 -21 4 -40 5 -20 8 -78 6 -130 l-3 -94 37 0 c37
0 37 0 27 32 -5 18 -9 79 -9 135 l0 103 -28 0 c-16 0 -31 -3 -34 -6z"/>
<path d="M11457 1883 c4 -21 7 -82 6 -135 l-1 -98 35 0 c32 0 35 2 29 23 -3
12 -6 73 -6 135 l0 112 -35 0 -36 0 8 -37z"/>
<path d="M12264 1716 c-27 -20 -14 -51 24 -54 30 -3 32 -1 32 26 0 34 -28 48
-56 28z"/>
</g>
</svg>
